<svg width="13" height="13" viewBox="0 0 13 13" fill="none" xmlns="http://www.w3.org/2000/svg">
<path d="M10.234 1.23212V1.23111H10.233C9.128 0.426117 7.818 0.00012207 6.444 0.00012207C5.07 0.00012207 3.759 0.426117 2.654 1.23111C0.993 2.43811 0 4.38312 0 6.43512C0 9.98413 2.89 12.8711 6.444 12.8711C9.997 12.8711 12.887 9.98413 12.887 6.43512C12.887 4.38312 11.896 2.43811 10.234 1.23212ZM6.444 0.559113C7.604 0.559113 8.715 0.89212 9.674 1.52414L8.523 3.10312V3.10413L7.36 4.70212C7.262 4.65112 7.158 4.61111 7.053 4.57712L7.046 4.57513C6.658 4.45312 6.23 4.45312 5.842 4.57513L5.835 4.57712C5.729 4.61111 5.625 4.65112 5.528 4.70312L4.364 3.10413L3.213 1.52414C4.172 0.89212 5.283 0.559113 6.444 0.559113ZM4.483 6.43512C4.483 7.51514 5.363 8.39413 6.444 8.39413C7.525 8.39413 8.405 7.51514 8.405 6.43512C8.405 5.90512 8.185 5.39914 7.811 5.03513L8.806 3.66812C9.612 4.35413 10.086 5.36911 10.086 6.43512C10.086 8.44113 8.452 10.0731 6.444 10.0731C4.436 10.0731 2.802 8.44113 2.802 6.43512C2.802 5.36911 3.276 4.35413 4.082 3.66812L5.077 5.03513C4.702 5.40012 4.483 5.90512 4.483 6.43512ZM5.619 5.30511L5.621 5.30414C6.088 4.96011 6.768 4.95612 7.242 5.28812C7.25 5.29413 7.26 5.29813 7.268 5.30511C7.629 5.56714 7.845 5.98914 7.845 6.43512C7.845 7.20712 7.216 7.83414 6.444 7.83414C5.671 7.83414 5.043 7.20712 5.043 6.43512C5.043 5.98914 5.259 5.56714 5.619 5.30511ZM6.444 12.3111C3.2 12.3111 0.56 9.67612 0.56 6.43512C0.56 4.65512 1.378 2.96313 2.76 1.85413L2.778 1.87811L3.756 3.22012C2.806 4.01212 2.241 5.19113 2.241 6.43512C2.241 8.75012 4.127 10.6331 6.444 10.6331C8.761 10.6331 10.646 8.75012 10.646 6.43512C10.646 5.19113 10.082 4.01212 9.132 3.22012L10.109 1.87811L10.127 1.85413C11.51 2.96313 12.327 4.65512 12.327 6.43512C12.327 9.67612 9.688 12.3111 6.444 12.3111Z" fill="white"/>
</svg>
