<svg width="16" height="16" viewBox="0 0 16 16" fill="none" xmlns="http://www.w3.org/2000/svg">
<path d="M14.2857 1.71428H12.5714V0.571439C12.5714 0.255837 12.3156 0 12 0C11.6844 0 11.4286 0.255837 11.4286 0.571439V1.71428H4.57141V0.571439C4.57141 0.255837 4.31558 0 4.00001 0C3.68444 0 3.42857 0.255837 3.42857 0.571439V1.71428H1.71428C0.767511 1.71428 0 2.4818 0 3.42857V14.2857C0 15.2325 0.767511 16 1.71428 16H14.2857C15.2325 16 16 15.2325 16 14.2857V3.42857C16 2.4818 15.2325 1.71428 14.2857 1.71428ZM14.8571 14.2857C14.8571 14.6013 14.6013 14.8572 14.2857 14.8572H1.71428C1.39868 14.8572 1.14285 14.6013 1.14285 14.2857V6.85714H14.8571V14.2857ZM14.8571 5.71429H1.14285V3.42857C1.14285 3.11297 1.39868 2.85713 1.71428 2.85713H3.42857V3.99997C3.42857 4.31558 3.68441 4.57141 4.00001 4.57141C4.31561 4.57141 4.57145 4.31558 4.57145 3.99997V2.85713H11.4286V3.99997C11.4286 4.31558 11.6844 4.57141 12 4.57141C12.3156 4.57141 12.5715 4.31558 12.5715 3.99997V2.85713H14.2857C14.6014 2.85713 14.8572 3.11297 14.8572 3.42857V5.71429H14.8571Z" fill="#3FD0D4"/>
<path d="M11.8184 8.16334C11.5969 7.94946 11.2458 7.94946 11.0244 8.16334L6.85697 12.3308L4.97524 10.449C4.74823 10.2298 4.38649 10.2361 4.16725 10.4631C3.95336 10.6845 3.95336 11.0356 4.16725 11.257L6.45297 13.5427C6.67613 13.7658 7.03784 13.7658 7.26097 13.5427L11.8324 8.97133C12.0516 8.74432 12.0453 8.38258 11.8184 8.16334Z" fill="#3FD0D4"/>
</svg>
