<svg width="20" height="23" viewBox="0 0 20 23" fill="none" xmlns="http://www.w3.org/2000/svg">
<g clip-path="url(#clip0_379_69)">
<path d="M4.28571 1.42857V2.85714H2.14286C0.959821 2.85714 0 3.81696 0 5V7.14286H20V5C20 3.81696 19.0402 2.85714 17.8571 2.85714H15.7143V1.42857C15.7143 0.638393 15.0759 0 14.2857 0C13.4955 0 12.8571 0.638393 12.8571 1.42857V2.85714H7.14286V1.42857C7.14286 0.638393 6.50446 0 5.71429 0C4.92411 0 4.28571 0.638393 4.28571 1.42857ZM20 8.57143H0V20.7143C0 21.8973 0.959821 22.8571 2.14286 22.8571H17.8571C19.0402 22.8571 20 21.8973 20 20.7143V8.57143Z" fill="#3FD0D4"/>
</g>
<defs>
<clipPath id="clip0_379_69">
<rect width="20" height="22.8571" fill="white"/>
</clipPath>
</defs>
</svg>
