<svg width="75" height="76" viewBox="0 0 75 76" fill="none" xmlns="http://www.w3.org/2000/svg">
<g clip-path="url(#clip0_473_186)">
<path d="M70.8996 31.3247L66.5027 27.8067C66.4852 27.7927 66.4676 27.7751 66.45 27.761L70.5434 26.9419C71.0906 26.8329 71.4844 26.3524 71.4844 25.7935V22.2778C71.4844 21.631 70.9594 21.106 70.3125 21.106H64.4531C63.8063 21.106 63.2812 21.631 63.2812 22.2778V24.331C63.2543 24.2946 63.2273 24.2583 63.2004 24.222C63.1266 24.0181 62.9953 23.8517 62.8289 23.7192C62.1691 22.7853 61.6043 21.8501 61.2363 21.0415L59.2559 16.6856C57.9937 13.9071 54.6141 11.731 51.5625 11.731H23.4375C20.3859 11.731 17.0063 13.9071 15.7441 16.6856L13.7648 21.0403C13.3969 21.8489 12.832 22.7853 12.1723 23.7192C12.0059 23.8517 11.8758 24.0181 11.8008 24.222C11.7738 24.2583 11.748 24.2935 11.7199 24.331V22.2778C11.7199 21.631 11.1949 21.106 10.548 21.106H4.6875C4.04063 21.106 3.51562 21.631 3.51562 22.2778V25.7935C3.51562 26.3524 3.90937 26.8329 4.45781 26.9419L8.55117 27.761C8.53359 27.7751 8.51602 27.7927 8.49844 27.8067L4.10039 31.3247C1.80117 33.1646 0 36.9122 0 39.856V59.7778C0 61.7161 1.57734 63.2935 3.51562 63.2935H12.8906C14.8289 63.2935 16.4062 61.7161 16.4062 59.7778V57.4341H58.5938V59.7778C58.5938 61.7161 60.1711 63.2935 62.1094 63.2935H71.4844C73.4227 63.2935 75 61.7161 75 59.7778V39.856C75 36.9122 73.1988 33.1646 70.8996 31.3247ZM60.2508 55.0903L57.5637 52.4032C56.4234 51.263 54.3469 50.4028 52.7344 50.4028H21.6797C20.0672 50.4028 17.9906 51.263 16.8504 52.4032L14.1633 55.0903H5.85938C3.92109 55.0903 2.34375 53.513 2.34375 51.5747V45.7153H3.51562V46.8872C3.51562 49.4724 5.61797 51.5747 8.20312 51.5747H11.7188C12.3656 51.5747 12.8906 51.0497 12.8906 50.4028C12.8906 49.756 12.3656 49.231 11.7188 49.231H8.20312C6.91055 49.231 5.85938 48.1798 5.85938 46.8872V45.7153H8.20312C9.17578 45.7153 10.6875 46.3411 11.3754 47.029C11.6039 47.2575 11.9039 47.3724 12.2039 47.3724C12.5039 47.3724 12.8039 47.2575 13.0324 47.029C13.4906 46.5708 13.4906 45.8302 13.0324 45.372C11.8922 44.2317 9.8168 43.3716 8.20312 43.3716H2.34375V39.856C2.34375 39.4423 2.40937 38.9958 2.50195 38.5399C3.25195 39.3228 4.34297 39.856 5.85938 39.856H15.2344C15.5449 39.856 15.8426 39.7329 16.0629 39.5126L17.5781 37.9974L19.0934 39.5126C19.3125 39.7329 19.6113 39.856 19.9219 39.856H33.4992L36.6715 43.0282C36.9 43.2567 37.2 43.3716 37.5 43.3716C37.8 43.3716 38.1 43.2567 38.3285 43.0282L41.5008 39.856H55.0781C55.3887 39.856 55.6875 39.7329 55.9066 39.5126L57.4219 37.9974L58.9371 39.5126C59.1562 39.7329 59.4551 39.856 59.7656 39.856H69.1406C70.657 39.856 71.748 39.3228 72.498 38.5399C72.5906 38.9958 72.6562 39.4423 72.6562 39.856V43.3716H66.7969C65.1844 43.3716 63.1078 44.2317 61.9676 45.372C61.5094 45.8302 61.5094 46.5708 61.9676 47.029C62.1961 47.2575 62.4961 47.3724 62.7961 47.3724C63.0961 47.3724 63.3961 47.2575 63.6246 47.029C64.3125 46.3411 65.8242 45.7153 66.7969 45.7153H69.1406V46.8872C69.1406 48.1798 68.0895 49.231 66.7969 49.231H63.2812C62.6344 49.231 62.1094 49.756 62.1094 50.4028C62.1094 51.0497 62.6344 51.5747 63.2812 51.5747H66.7969C69.382 51.5747 71.4844 49.4724 71.4844 46.8872V45.7153H72.6562V51.5747C72.6562 53.513 71.0789 55.0903 69.1406 55.0903H60.2508ZM56.9367 55.0903H17.4773L18.5074 54.0603C19.1953 53.3724 20.707 52.7466 21.6797 52.7466H52.7344C53.707 52.7466 55.2188 53.3724 55.9066 54.0603L56.9367 55.0903ZM13.5469 25.7935H61.4531C62.5887 27.2946 63.8859 28.7149 65.0379 29.6372L66.4477 30.7646L58.159 34.0798C58.1578 34.0798 58.1578 34.081 58.1566 34.081C58.0148 34.1384 57.8812 34.2239 57.7664 34.3388L56.5945 35.5106L54.593 37.5122H41.0156C40.7051 37.5122 40.4062 37.6353 40.1871 37.8556L37.5 40.5427L34.8129 37.8556C34.5938 37.6353 34.2949 37.5122 33.9844 37.5122H20.407L18.4066 35.5118L17.2348 34.3399C17.1199 34.2251 16.9863 34.1396 16.8445 34.0821C16.8434 34.0821 16.8434 34.081 16.8422 34.081L8.55352 30.7657L9.96328 29.6384C11.1141 28.7149 12.4113 27.2946 13.5469 25.7935ZM71.4152 35.6595C71.1797 36.8841 70.4203 37.5122 69.1406 37.5122H60.2508L59.0789 36.3403L59.2523 36.1669L68.5512 32.4474L69.4348 33.1552C70.1777 33.7493 70.8633 34.6528 71.4152 35.6595ZM65.625 23.4497H69.1406V24.8325L65.625 25.5356V23.4497ZM15.8965 22.0106L17.8758 17.656C18.7594 15.7142 21.3059 14.0747 23.4375 14.0747H51.5625C53.6941 14.0747 56.2406 15.7142 57.123 17.6548L59.1035 22.0106C59.3098 22.463 59.5781 22.9517 59.8723 23.4497H15.1277C15.4219 22.9517 15.6914 22.463 15.8965 22.0106ZM5.85938 23.4497H9.375V25.5356L5.85938 24.8325V23.4497ZM5.56406 33.1552L6.44766 32.4474L15.7477 36.1669L15.9211 36.3403L14.7492 37.5122H5.85938C4.57969 37.5122 3.82031 36.8841 3.58477 35.6595C4.13672 34.6528 4.82109 33.7493 5.56406 33.1552ZM12.8906 60.9497H3.51562C2.86992 60.9497 2.34375 60.4235 2.34375 59.7778V56.2329C3.32578 56.9759 4.53516 57.4341 5.85938 57.4341H14.0625V59.7778C14.0625 60.4235 13.5363 60.9497 12.8906 60.9497ZM71.4844 60.9497H62.1094C61.4637 60.9497 60.9375 60.4235 60.9375 59.7778V57.4341H69.1406C70.4648 57.4341 71.6742 56.9759 72.6562 56.2329V59.7778C72.6562 60.4235 72.1301 60.9497 71.4844 60.9497Z" fill="#3FD0D4"/>
</g>
<defs>
<clipPath id="clip0_473_186">
<rect width="75" height="75" fill="white" transform="translate(0 0.012207)"/>
</clipPath>
</defs>
</svg>
