<svg width="25" height="25" viewBox="0 0 25 25" fill="none" xmlns="http://www.w3.org/2000/svg">
<g clip-path="url(#clip0_380_102)">
<path d="M12.5 25C15.8152 25 18.9946 23.683 21.3388 21.3388C23.683 18.9946 25 15.8152 25 12.5C25 9.18479 23.683 6.00537 21.3388 3.66117C18.9946 1.31696 15.8152 0 12.5 0C9.18479 0 6.00537 1.31696 3.66117 3.66117C1.31696 6.00537 0 9.18479 0 12.5C0 15.8152 1.31696 18.9946 3.66117 21.3388C6.00537 23.683 9.18479 25 12.5 25ZM14.9756 15.874L7.92969 18.584C6.98242 18.9502 6.0498 18.0176 6.41602 17.0703L9.12598 10.0244C9.28711 9.60938 9.60938 9.28711 10.0244 9.12598L17.0703 6.41602C18.0176 6.0498 18.9502 6.98242 18.584 7.92969L15.874 14.9756C15.7178 15.3906 15.3906 15.7129 14.9756 15.874ZM14.0625 12.5C14.0625 12.0856 13.8979 11.6882 13.6049 11.3951C13.3118 11.1021 12.9144 10.9375 12.5 10.9375C12.0856 10.9375 11.6882 11.1021 11.3951 11.3951C11.1021 11.6882 10.9375 12.0856 10.9375 12.5C10.9375 12.9144 11.1021 13.3118 11.3951 13.6049C11.6882 13.8979 12.0856 14.0625 12.5 14.0625C12.9144 14.0625 13.3118 13.8979 13.6049 13.6049C13.8979 13.3118 14.0625 12.9144 14.0625 12.5Z" fill="#3fd0d4"/>
</g>
<defs>
<clipPath id="clip0_380_102">
<rect width="25" height="25" fill="#3fd0d4"/>
</clipPath>
</defs>
</svg>
