<svg width="60" height="56" viewBox="0 0 60 56" fill="none" xmlns="http://www.w3.org/2000/svg">
<path d="M59.5313 13C59.25 12.8125 58.875 12.7187 58.5938 12.9062L39.4688 19.75L26.0625 14.875C26.8125 13 27.1875 11.3125 27.1875 9.90625C27.1875 7.375 26.25 5.125 24.4688 3.34375C22.6875 1.5625 20.3438 0.625 17.9063 0.625C12.75 0.625 8.625 4.75 8.625 9.90625C8.625 11.6875 9.28125 13.8438 10.4063 16.4688L0.65625 19.75C0.28125 19.9375 0 20.3125 0 20.6875V54.4375C0 54.8125 0.1875 55.0937 0.46875 55.2812C0.65625 55.375 0.84375 55.4688 1.03125 55.4688C1.125 55.4688 1.3125 55.4688 1.40625 55.375L20.5313 48.625L39.0938 55.4688C39.2813 55.5625 39.5625 55.5625 39.75 55.4688L59.25 48.5313C59.625 48.3438 59.9063 47.9688 59.9063 47.5938V13.8437C60 13.4687 59.8125 13.1875 59.5313 13ZM17.9063 2.5C19.875 2.5 21.6563 3.25 22.9688 4.65625C24.375 5.96875 25.125 7.84375 25.125 9.71875C25.125 11.0312 24.6563 12.8125 23.7188 14.875C22.0313 18.625 19.2188 22.5625 17.9063 24.3438C17.7188 24.1563 17.625 23.9688 17.4375 23.6875C16.2188 22 14.25 19.1875 12.8438 16.2813C11.4375 13.5625 10.7813 11.3125 10.7813 9.625C10.6875 5.78125 13.9688 2.5 17.9063 2.5ZM57.9375 46.8437L39.4688 53.4062L20.9063 46.5625C20.8125 46.5625 20.625 46.4688 20.5313 46.4688C20.4375 46.4688 20.25 46.4687 20.1563 46.5625L2.0625 53.0313V21.4375L11.4375 18.1563C11.4375 18.1563 11.4375 18.1563 11.4375 18.25C11.5313 18.3438 11.5313 18.4375 11.625 18.5313C11.7188 18.7188 11.8125 18.9063 11.9063 19.0938C12 19.1875 12 19.2812 12.0938 19.375C12.1875 19.5625 12.2813 19.75 12.375 19.9375C12.4688 20.0313 12.4688 20.125 12.5625 20.2188C12.6563 20.4063 12.75 20.5938 12.8438 20.6875C12.9375 20.7813 12.9375 20.875 13.0313 20.9688C13.125 21.1563 13.2188 21.25 13.3125 21.4375C13.4063 21.5313 13.4063 21.625 13.5 21.7188C13.5938 21.9063 13.6875 22 13.7813 22.1875C13.875 22.2813 13.875 22.375 13.9688 22.4688C14.0625 22.6563 14.1563 22.75 14.25 22.9375C14.3438 23.0313 14.3438 23.125 14.4375 23.2188C14.5313 23.4063 14.625 23.5 14.7188 23.6875C14.8125 23.7813 14.8125 23.875 14.9063 23.875C15 24.0625 15.0938 24.1563 15.1875 24.25C15.1875 24.3438 15.2813 24.3438 15.2813 24.4375C15.375 24.625 15.4688 24.7188 15.5625 24.8125L15.6563 24.9063C15.75 25 15.8438 25.1875 15.9375 25.2813L16.0313 25.375C16.125 25.4688 16.2188 25.6563 16.3125 25.75C16.4063 25.8438 16.5 25.9375 16.5938 26.0313C16.7813 26.3125 16.9688 26.5 16.9688 26.5938C17.1563 26.875 17.4375 26.9688 17.8125 26.9688C18.0938 26.9688 18.375 26.7813 18.6563 26.5938C18.6563 26.5938 18.75 26.5 18.9375 26.3125L19.0313 26.2188C19.125 26.125 19.125 26.125 19.2188 26.0313L19.3125 25.9375C19.4063 25.8437 19.4063 25.75 19.5 25.6563C19.5 25.5625 19.5938 25.5625 19.5938 25.4688C19.6875 25.375 19.7813 25.2813 19.7813 25.1875C19.875 25.0938 19.875 25 19.9688 24.9063C20.0625 24.8125 20.1563 24.7188 20.25 24.5312C20.3438 24.4375 20.3438 24.3438 20.4375 24.25C20.5313 24.1563 20.625 24.0625 20.7188 23.875C20.8125 23.7813 20.9063 23.6875 20.9063 23.5938C21 23.5 21.0938 23.3125 21.1875 23.2188C21.2813 23.125 21.375 22.9375 21.4688 22.8438C21.5625 22.75 21.6563 22.5625 21.75 22.4688C21.8438 22.375 21.9375 22.1875 22.0313 22.0938C22.125 21.9063 22.2188 21.8125 22.3125 21.625C22.4063 21.5313 22.5 21.3438 22.5938 21.25C22.6875 21.0625 22.7813 20.9688 22.875 20.7812C22.9688 20.5937 23.0625 20.5 23.1563 20.3125C23.25 20.125 23.3438 20.0313 23.4375 19.8438C23.5313 19.6562 23.625 19.5625 23.7188 19.375C23.8125 19.1875 23.9063 19.0938 24 18.9062C24.0938 18.7187 24.1875 18.625 24.2813 18.4375C24.375 18.25 24.4688 18.1563 24.5625 17.9688C24.6563 17.7812 24.75 17.6875 24.8438 17.5C24.9375 17.3125 25.0313 17.125 25.125 17.0312C25.2188 16.8437 25.3125 16.75 25.3125 16.5625C25.3125 16.5625 25.3125 16.5625 25.3125 16.4688L39.1875 21.5313C39.375 21.625 39.6563 21.625 39.8438 21.5313L57.9375 15.0625V46.8437Z" fill="#3FD0D4"/>
<path d="M49.2188 37.75C49.4063 37.8437 49.6876 37.8437 49.8751 37.8437C50.4376 37.8437 51.0001 37.6562 51.4688 37.375C52.1251 36.9062 52.5938 36.25 52.7813 35.5C52.9688 34.75 52.7813 33.9062 52.4063 33.25C51.9376 32.5937 51.2813 32.125 50.5313 31.9375C48.9376 31.5625 47.2501 32.5937 46.8751 34.1875C46.6876 34.9375 46.8751 35.7812 47.2501 36.4375C47.8126 37.0937 48.4688 37.5625 49.2188 37.75ZM48.9376 34.5625C49.0313 34 49.5938 33.7187 50.0626 33.8125C50.3438 33.9062 50.5313 34 50.6251 34.2812C50.7188 34.4687 50.8126 34.75 50.7188 35.0312C50.6251 35.3125 50.5313 35.5 50.2501 35.5937C50.0626 35.6875 49.7813 35.7812 49.5001 35.6875C49.2188 35.5937 49.0313 35.5 48.9376 35.2187C48.9376 35.0312 48.9376 34.8437 48.9376 34.5625Z" fill="#3FD0D4"/>
<path d="M10.3125 34.6563L9.65628 35.0313L9.28128 34.375C9.00003 33.9063 8.34378 33.7188 7.87503 34.0938C7.40628 34.375 7.21878 35.0313 7.59378 35.5L7.96878 36.1563L7.31253 36.5313C6.84378 36.8125 6.65628 37.4688 7.03128 37.9375C7.12503 38.3125 7.50003 38.4063 7.78128 38.4063C7.96878 38.4063 8.15628 38.3125 8.34378 38.2188L9.00003 37.8438L9.37503 38.5C9.56253 38.7813 9.93753 38.9688 10.2188 38.9688C10.4063 38.9688 10.5938 38.875 10.7813 38.7813C11.25 38.5 11.4375 37.8438 11.0625 37.375L10.6875 36.7188L11.3438 36.3438C11.8125 36.0625 12 35.4063 11.625 34.9375C11.4375 34.4688 10.7813 34.375 10.3125 34.6563Z" fill="#3FD0D4"/>
<path d="M19.9687 37.4687C18.75 37.4687 17.1562 37.2812 16.125 37C15.5625 36.9062 15 37.2812 14.9062 37.8437C14.8125 38.4062 15.1875 38.9687 15.75 39.0625C16.7812 39.25 18.4687 39.5312 19.9687 39.5312C20.5312 39.5312 21 39.0625 21 38.5C21 37.9375 20.5312 37.4687 19.9687 37.4687Z" fill="#3FD0D4"/>
<path d="M27.6563 33.9062C27 34.8437 26.25 35.5937 25.3125 36.1562C25.0313 36.3437 24.6563 36.5312 24.2813 36.7187C23.7188 36.9062 23.5312 37.5624 23.7187 38.1249C23.9062 38.4999 24.2812 38.7812 24.6562 38.7812C24.75 38.7812 24.9375 38.7812 25.0313 38.6874C25.5 38.4999 25.875 38.3124 26.25 38.0312C27.375 37.2812 28.3125 36.4374 29.1563 35.3124C29.5313 34.8437 29.4375 34.1874 28.9688 33.9062C28.6875 33.3437 28.0313 33.4374 27.6563 33.9062Z" fill="#3FD0D4"/>
<path d="M35.1562 27.1562C34.125 27.1562 33.5625 27.4375 33 27.625C31.6875 28.1875 30.5625 29.4063 30.2812 29.7813C29.9062 30.25 30 30.9062 30.375 31.2812C30.5625 31.4687 30.8437 31.5625 31.0312 31.5625C31.3125 31.5625 31.5937 31.4688 31.7812 31.1875C32.25 30.625 33 29.9688 33.75 29.5938C34.3125 29.4063 34.5 29.3125 35.1562 29.2187C35.7187 29.2187 36.1875 28.75 36.1875 28.1875C36.1875 27.625 35.7187 27.1562 35.1562 27.1562Z" fill="#3FD0D4"/>
<path d="M39 28.7499C38.8125 29.3124 39 29.8749 39.5625 30.1562C40.5938 30.6249 42.0937 31.3749 43.2187 32.2187C43.4062 32.3124 43.5938 32.4062 43.7813 32.4062C44.1563 32.4062 44.4375 32.2187 44.625 31.9374C44.9062 31.4687 44.8125 30.8124 44.3438 30.5312C43.0313 29.6874 41.5313 28.8437 40.3125 28.3749C39.8438 27.9999 39.2812 28.2812 39 28.7499Z" fill="#3FD0D4"/>
<path d="M17.9063 12.25C19.6875 12.25 21.0938 10.8438 21.0938 9.0625C21.0938 7.28125 19.6875 5.875 17.9063 5.875C16.125 5.875 14.7188 7.28125 14.7188 9.0625C14.7188 10.8438 16.2188 12.25 17.9063 12.25ZM17.9063 7.9375C18.4688 7.9375 19.0312 8.40625 19.0312 9.0625C19.0312 9.625 18.5625 10.1875 17.9063 10.1875C17.3438 10.1875 16.7812 9.71875 16.7812 9.0625C16.875 8.5 17.3438 7.9375 17.9063 7.9375Z" fill="#3FD0D4"/>
</svg>
