<svg width="60" height="60" viewBox="0 0 60 60" fill="none" xmlns="http://www.w3.org/2000/svg">
<g clip-path="url(#clip0_346_673)">
<path d="M30 0C13.4316 0 0 13.4316 0 30C0 46.5684 13.4316 60 30 60C46.5684 60 60 46.5684 60 30C60 13.4316 46.5684 0 30 0ZM30 58.125C14.4666 58.125 1.875 45.5325 1.875 30C1.875 14.4666 14.4666 1.875 30 1.875C45.5334 1.875 58.125 14.4666 58.125 30C58.125 45.5325 45.5334 58.125 30 58.125Z" fill="#3FD0D4"/>
<path d="M30 30.9375C30.5178 30.9375 30.9375 30.5178 30.9375 30C30.9375 29.4822 30.5178 29.0625 30 29.0625C29.4822 29.0625 29.0625 29.4822 29.0625 30C29.0625 30.5178 29.4822 30.9375 30 30.9375Z" fill="#3FD0D4"/>
<path d="M34.6228 30.645C34.6519 30.4322 34.6875 30.2213 34.6875 30C34.6875 28.4709 33.945 27.1275 32.8125 26.2706V13.125C32.8125 11.5716 31.5534 10.3125 30 10.3125C28.4466 10.3125 27.1875 11.5716 27.1875 13.125V26.2706C26.055 27.1266 25.3125 28.4709 25.3125 30C25.3125 32.5894 27.4106 34.6875 30 34.6875C30.2203 34.6875 30.4322 34.6519 30.645 34.6228L38.6184 42.5963C39.7172 43.695 41.4966 43.6941 42.5953 42.5953C43.6941 41.4966 43.6941 39.7172 42.5953 38.6184L34.6228 30.645ZM29.0625 13.125C29.0625 12.6066 29.4816 12.1875 30 12.1875C30.5184 12.1875 30.9375 12.6066 30.9375 13.125V25.4072C30.6347 25.3453 30.3216 25.3125 30 25.3125C29.6784 25.3125 29.3653 25.3453 29.0625 25.4072V13.125ZM27.1875 30C27.1875 28.4466 28.4466 27.1875 30 27.1875C31.5534 27.1875 32.8125 28.4466 32.8125 30C32.8125 31.5534 31.5534 32.8125 30 32.8125C28.4466 32.8125 27.1875 31.5534 27.1875 30ZM41.2697 41.2697C40.9031 41.6372 40.3106 41.6372 39.9441 41.2706L32.5819 33.9084C33.1088 33.5597 33.5597 33.1088 33.9084 32.5819L41.2697 39.9441C41.6353 40.3097 41.6353 40.9031 41.2697 41.2697Z" fill="#3FD0D4"/>
<path d="M30 3.75C15.5025 3.75 3.75 15.5025 3.75 30C3.75 44.4975 15.5025 56.25 30 56.25C44.4975 56.25 56.25 44.4975 56.25 30C56.25 15.5025 44.4975 3.75 30 3.75ZM47.8828 46.5563L45.9113 44.5837C45.5428 44.2181 44.9503 44.2181 44.5847 44.5837C44.2181 44.9512 44.2181 45.5428 44.5847 45.9103L46.5572 47.8828C42.4237 51.7125 36.9619 54.1237 30.9384 54.3516L30.9394 51.5634C30.9375 51.045 30.5184 50.6259 30.0019 50.6259C29.4825 50.6269 29.0644 51.045 29.0644 51.5634L29.0634 54.3516C23.04 54.1237 17.5781 51.7134 13.4447 47.8847L15.4172 45.9122C15.7828 45.5447 15.7828 44.9522 15.4172 44.5866C15.0487 44.22 14.4581 44.22 14.0916 44.5866L12.1191 46.5591C8.29031 42.4256 5.87906 36.9637 5.65031 30.9403H8.43844C8.95688 30.9394 9.37594 30.5203 9.37594 30.0028C9.375 29.4834 8.95688 29.0653 8.43844 29.0653H5.64844C5.87625 23.0419 8.28656 17.5791 12.1153 13.4456L14.0878 15.4181C14.4544 15.7847 15.0469 15.7847 15.4134 15.4181C15.78 15.0506 15.78 14.4591 15.4134 14.0925L13.4409 12.12C17.5744 8.29031 23.0372 5.87906 29.0606 5.65125V8.4375C29.0606 8.95594 29.4797 9.375 29.9981 9.375C30.5166 9.375 30.9356 8.95594 30.9356 8.4375V5.64844C36.9591 5.87625 42.4219 8.28656 46.5553 12.1163L44.5828 14.0887C44.2163 14.4553 44.2163 15.0478 44.5828 15.4144C44.9494 15.7809 45.5419 15.7809 45.9084 15.4144L47.8819 13.4419C51.7106 17.5753 54.1219 23.0381 54.3497 29.0616H51.5625C51.0441 29.0616 50.625 29.4806 50.625 29.9991C50.625 30.5175 51.0441 30.9366 51.5625 30.9366H54.3516C54.1228 36.9609 51.7125 42.4228 47.8828 46.5563Z" fill="#3FD0D4"/>
</g>
<defs>
<clipPath id="clip0_346_673">
<rect width="60" height="60" fill="white"/>
</clipPath>
</defs>
</svg>
