<svg width="48" height="50" viewBox="0 0 48 50" fill="none" xmlns="http://www.w3.org/2000/svg">
<path d="M37.9277 28.1504L28.2832 33.5059V44.2227L37.9277 49.5781L47.5723 44.2227V33.5059L37.9277 28.1504ZM43.2832 41.7031L37.9277 44.6797L32.5723 41.7031V36.0312L37.9277 33.0547L43.2832 36.0312V41.7031Z" fill="#3FD0D4"/>
<path d="M35.8126 39.2103C35.8577 39.4883 35.9571 39.7547 36.1051 39.9942C36.2531 40.2338 36.4469 40.4419 36.6754 40.6066C36.9038 40.7713 37.1625 40.8893 37.4366 40.9541C37.7107 41.0188 37.9948 41.0289 38.2728 40.9838C38.5508 40.9387 38.8172 40.8393 39.0567 40.6913C39.2963 40.5432 39.5044 40.3495 39.6691 40.121C39.8338 39.8926 39.9518 39.6339 40.0166 39.3598C40.0813 39.0857 40.0914 38.8016 40.0463 38.5236C40.0012 38.2456 39.9018 37.9792 39.7538 37.7396C39.6057 37.5001 39.412 37.292 39.1835 37.1273C38.9551 36.9626 38.6964 36.8445 38.4223 36.7798C38.1482 36.7151 37.8641 36.705 37.5861 36.7501C37.3081 36.7952 37.0417 36.8946 36.8021 37.0426C36.5626 37.1906 36.3545 37.3844 36.1898 37.6129C36.0251 37.8413 35.907 38.1 35.8423 38.3741C35.7776 38.6482 35.7675 38.9323 35.8126 39.2103Z" fill="#3FD0D4"/>
<path d="M34.3535 24.1133C33.6094 23.75 32.8477 23.4219 32.0742 23.1406C34.9922 20.7793 36.8555 17.1758 36.8555 13.1445C36.8555 6.05469 31.0898 0.289062 24 0.289062C16.9102 0.289062 11.1445 6.05469 11.1445 13.1445C11.1445 17.1816 13.0137 20.791 15.9316 23.1465C6.89648 26.4512 0.427734 35.1289 0.427734 45.2949H4.71094C4.71094 34.6602 13.3652 26.0117 23.9941 26.0117C26.9648 26.0117 29.8125 26.668 32.4609 27.9629L34.3535 24.1133ZM24 4.57227C28.7285 4.57227 32.5723 8.41602 32.5723 13.1445C32.5723 17.873 28.7285 21.7168 24 21.7168C19.2715 21.7168 15.4277 17.873 15.4277 13.1445C15.4277 8.41602 19.2773 4.57227 24 4.57227Z" fill="#3FD0D4"/>
</svg>
