<svg width="60" height="60" viewBox="0 0 60 60" fill="none" xmlns="http://www.w3.org/2000/svg">
<g clip-path="url(#clip0_346_646)">
<path d="M59.7914 57.1659L48.928 35.4389L58.9166 30.4446C59.5794 30.1134 59.9981 29.4359 59.9981 28.6948C59.9981 27.9537 59.5794 27.2762 58.9166 26.945C46.4346 20.7039 47.0964 21.019 46.8435 20.9464C45.5935 20.5853 44.347 21.5343 44.347 22.8256V26.2766C43.7863 25.1552 32.263 2.10883 31.7499 1.0825C31.0309 -0.356094 28.9706 -0.358086 28.2503 1.0825C27.8954 1.79219 16.2094 25.1644 15.6533 26.2765C15.6533 21.1645 15.6607 21.4693 15.6358 21.2734C15.4823 20.0718 14.2916 19.315 13.1571 19.6422C12.8051 19.7431 13.0833 19.641 1.08374 25.6408C0.420924 25.9721 0.00221323 26.6495 0.00221323 27.3906C0.00221323 28.1317 0.420924 28.8092 1.08374 29.1405L11.5939 34.3956L0.208463 57.1659C-0.440521 58.4638 0.504244 59.9971 1.95842 59.9971C3.12725 59.9971 56.3666 59.9971 58.0415 59.9971C59.4931 59.9971 60.4415 58.4659 59.7914 57.1659ZM48.2596 25.9913L53.6669 28.695L48.2596 31.3987V25.9913ZM30 6.33215L35.0103 16.3529L33.9128 17.4504L31.3833 14.9209C30.6193 14.157 29.3805 14.157 28.6166 14.9209L26.0871 17.4504L24.9895 16.3527L30 6.33215ZM23.145 20.0419L24.7036 21.6006C25.4669 22.364 26.7064 22.3647 27.4703 21.6006L29.9998 19.0711L32.5292 21.6006C33.2932 22.3646 34.532 22.3646 35.2959 21.6006L36.8546 20.0419L40.0097 26.352L35.9051 30.4566L31.4192 25.9708C30.6553 25.2068 29.4165 25.2068 28.6526 25.9708L24.0852 30.5382L19.9596 26.4126L23.145 20.0419ZM6.33303 27.3906L11.7404 24.687V30.0944L6.33303 27.3906ZM44.9038 56.0843L41.7383 49.7533V46.3023C41.7383 45.9986 41.6676 45.6989 41.5317 45.4274L37.6189 37.6019C37.1359 36.6354 35.9607 36.2434 34.9943 36.727C34.0278 37.21 33.6362 38.3852 34.1194 39.3516L37.8255 46.7641V50.215C37.8255 50.5186 37.8962 50.8182 38.0321 51.0899L40.5293 56.0842H31.9564V46.3022C31.9564 45.2218 31.0805 44.3458 30 44.3458C28.9195 44.3458 28.0435 45.2218 28.0435 46.3022V56.0842H19.4708L21.968 51.0899C22.1039 50.8183 22.1744 50.5187 22.1744 50.215V46.7641L25.8807 39.3516C26.364 38.3853 25.9721 37.21 25.0058 36.727C24.0395 36.2436 22.8642 36.6355 22.381 37.6019L18.4683 45.4274C18.3323 45.6991 18.2618 45.9986 18.2618 46.3023V49.7533L15.0962 56.0843H5.12378L12.0756 42.1807C12.4274 42.7002 13.0221 43.0417 13.6966 43.0417C14.7771 43.0417 15.6531 42.1657 15.6531 41.0853V35.0259L18.1153 30.1015L22.702 34.6882C23.4661 35.4523 24.7048 35.4523 25.4687 34.6882L30.0361 30.1209L34.5219 34.6067C35.2858 35.3706 36.5246 35.3706 37.2886 34.6067L41.8544 30.0408L44.3469 35.0259V42.3896C44.3469 43.47 45.2229 44.346 46.3033 44.346C47.252 44.346 48.0424 43.6708 48.2214 42.7748L54.8762 56.0843H44.9038Z" fill="#3FD0D4"/>
</g>
<defs>
<clipPath id="clip0_346_646">
<rect width="60" height="60" fill="white"/>
</clipPath>
</defs>
</svg>
