<svg width="75" height="76" viewBox="0 0 75 76" fill="none" xmlns="http://www.w3.org/2000/svg">
<g clip-path="url(#clip0_473_206)">
<path d="M3.75 45.0122H4.99995V53.7621C5.00405 57.2121 7.79985 60.0079 11.25 60.0122C12.6069 60.0077 13.9245 59.5569 15 58.7297V60.0122C15 63.464 17.7983 66.2622 21.25 66.2622C24.7018 66.2622 27.5001 63.464 27.5001 60.0122V45.0122H47.5V60.0122C47.5 63.464 50.2983 66.2622 53.7501 66.2622C57.2019 66.2622 60.0001 63.464 60.0001 60.0122V58.7297C61.0756 59.5569 62.3933 60.0077 63.7501 60.0122C67.2001 60.0081 69.9959 57.2123 70.0002 53.7621V45.0122H71.2501C73.3211 45.0122 75.0001 43.3332 75.0001 41.2622V33.7622C75.0001 31.6912 73.3213 30.0122 71.2501 30.0122H70.0002V21.2622C69.9961 17.8122 67.2003 15.0164 63.7501 15.0122C62.3933 15.0167 61.0756 15.4675 60.0001 16.2947V15.0122C60.0001 11.5604 57.2019 8.76215 53.7501 8.76215C50.2983 8.76215 47.5 11.5604 47.5 15.0122V30.0122H27.5V15.0122C27.5 11.5604 24.7017 8.76215 21.2499 8.76215C17.7981 8.76215 15 11.5604 15 15.0122V16.2947C13.9245 15.4675 12.6069 15.0167 11.25 15.0122C7.8 15.0163 5.0042 17.8121 4.99995 21.2622V30.0122H3.75C1.679 30.0122 0 31.6912 0 33.7622V41.2622C0 43.3332 1.679 45.0122 3.75 45.0122ZM71.25 32.5122C71.9404 32.5122 72.5 33.072 72.5 33.7622V41.2622C72.5 41.9526 71.9404 42.5121 71.25 42.5121H70V32.5121H71.25V32.5122ZM63.75 17.5122C65.821 17.5122 67.5 19.1912 67.5 21.2622V53.7623C67.5 55.8333 65.821 57.5123 63.75 57.5123C61.679 57.5123 60 55.8333 60 53.7623V21.2622C60 19.1911 61.679 17.5122 63.75 17.5122ZM50 15.0122C50 12.9412 51.679 11.2622 53.75 11.2622C55.8209 11.2622 57.5 12.9412 57.5 15.0122V60.0122C57.5 62.0832 55.8209 63.7622 53.75 63.7622C51.679 63.7622 50 62.0832 50 60.0122V15.0122ZM47.5 32.5122V42.5123H27.5V32.5122H47.5ZM17.5 15.0122C17.5 12.9412 19.1791 11.2622 21.25 11.2622C23.321 11.2622 25 12.9412 25 15.0122V60.0122C25 62.0832 23.321 63.7622 21.25 63.7622C19.1789 63.7622 17.5 62.0832 17.5 60.0122V15.0122ZM7.5 21.2622C7.5 19.1911 9.179 17.5122 11.25 17.5122C13.321 17.5122 15 19.1912 15 21.2622V53.7623C15 55.8333 13.321 57.5123 11.25 57.5123C9.179 57.5123 7.5 55.8333 7.5 53.7623V21.2622ZM2.50005 33.7622C2.50005 33.0718 3.05977 32.5122 3.75 32.5122H4.99995V42.5123H3.75C3.05962 42.5123 2.50005 41.9527 2.50005 41.2623V33.7622Z" fill="#3FD0D4"/>
</g>
<defs>
<clipPath id="clip0_473_206">
<rect width="75" height="75" fill="white" transform="translate(0 0.012207)"/>
</clipPath>
</defs>
</svg>
