<svg width="60" height="60" viewBox="0 0 60 60" fill="none" xmlns="http://www.w3.org/2000/svg">
<g clip-path="url(#clip0_348_2009)">
<path d="M0 30C0 13.458 13.458 0 30 0C36.6809 0 43.0043 2.14943 48.2869 6.216L41.3154 15.272C38.0491 12.7577 34.1363 11.4286 30 11.4286C19.7597 11.4286 11.4286 19.7597 11.4286 30C11.4286 40.2403 19.7597 48.5714 30 48.5714C38.2477 48.5714 45.2566 43.1677 47.672 35.7143H30V24.2857H60V30C60 46.542 46.542 60 30 60C13.458 60 0 46.542 0 30Z" fill="#3FD0D4"/>
</g>
<defs>
<clipPath id="clip0_348_2009">
<rect width="60" height="60" fill="white"/>
</clipPath>
</defs>
</svg>
