<svg width="75" height="75" viewBox="0 0 75 75" fill="none" xmlns="http://www.w3.org/2000/svg">
<path d="M36.3281 49.2188H33.9844V51.5625H36.3281V49.2188Z" fill="#3FD0D4"/>
<path d="M72.0774 22.4273L63.2813 17.2711V9.375H64.4532C64.764 9.375 65.0621 9.25153 65.2819 9.03177C65.5016 8.812 65.6251 8.51393 65.6251 8.20312V3.51562C65.6251 3.20482 65.5016 2.90675 65.2819 2.68698C65.0621 2.46721 64.764 2.34375 64.4532 2.34375H52.7345C52.4237 2.34375 52.1256 2.46721 51.9058 2.68698C51.6861 2.90675 51.5626 3.20482 51.5626 3.51562V8.20312C51.5626 8.51393 51.6861 8.812 51.9058 9.03177C52.1256 9.25153 52.4237 9.375 52.7345 9.375H53.9063V11.775L38.0931 2.50547C37.9133 2.39998 37.7086 2.34438 37.5001 2.34438C37.2916 2.34438 37.0869 2.39998 36.9071 2.50547L2.92276 22.4273C2.74661 22.5307 2.60052 22.6783 2.49898 22.8554C2.39744 23.0326 2.34396 23.2333 2.34385 23.4375V29.2969C2.34396 29.5032 2.39855 29.7059 2.50211 29.8844C2.60566 30.0628 2.7545 30.2108 2.93359 30.3133C3.11267 30.4158 3.31564 30.4692 3.52198 30.4681C3.72832 30.467 3.93072 30.4114 4.10869 30.307L7.03135 28.5938V59.2453C6.32118 59.6535 5.73081 60.2413 5.31945 60.9497C4.90809 61.658 4.69019 62.4621 4.6876 63.2812C4.68753 63.4882 4.70163 63.695 4.72979 63.9C3.82731 64.4072 3.11857 65.1995 2.71461 66.1527C2.31064 67.1059 2.23426 68.1661 2.49744 69.1674C2.76061 70.1686 3.34847 71.0543 4.16893 71.6856C4.98939 72.317 5.9961 72.6583 7.03135 72.6562H67.9688C69.0041 72.6583 70.0108 72.317 70.8313 71.6856C71.6517 71.0543 72.2396 70.1686 72.5028 69.1674C72.7659 68.1661 72.6896 67.1059 72.2856 66.1527C71.8816 65.1995 71.1729 64.4072 70.2704 63.9C70.2986 63.695 70.3127 63.4882 70.3126 63.2812C70.31 62.4621 70.0921 61.658 69.6807 60.9497C69.2694 60.2413 68.679 59.6535 67.9688 59.2453V28.5938L70.8915 30.307C71.0695 30.4114 71.2719 30.467 71.4782 30.4681C71.6846 30.4692 71.8875 30.4158 72.0666 30.3133C72.2457 30.2108 72.3945 30.0628 72.4981 29.8844C72.6016 29.7059 72.6562 29.5032 72.6563 29.2969V23.4375C72.6562 23.2333 72.6028 23.0326 72.5012 22.8554C72.3997 22.6783 72.2536 22.5307 72.0774 22.4273ZM53.9063 4.6875H63.2813V7.03125H53.9063V4.6875ZM56.2501 9.375H60.9376V15.8965L56.2501 13.1484V9.375ZM7.03135 70.3125C6.46419 70.3133 5.91611 70.1077 5.48931 69.7342C5.0625 69.3607 4.78611 68.8447 4.71167 68.2825C4.63723 67.7202 4.76982 67.1501 5.08472 66.6784C5.39962 66.2067 5.87533 65.8656 6.42315 65.7188C6.58283 65.6754 6.73152 65.5988 6.85945 65.4938C6.98738 65.3889 7.09163 65.2581 7.16536 65.11C7.23909 64.9618 7.28062 64.7998 7.28721 64.6345C7.2938 64.4691 7.26531 64.3043 7.20362 64.1508C7.0837 63.8551 7.02562 63.538 7.03298 63.2191C7.04034 62.9001 7.11297 62.586 7.2464 62.2962C7.37983 62.0064 7.57122 61.747 7.80877 61.534C8.04632 61.321 8.32498 61.159 8.62758 61.0578C8.93018 60.9567 9.25029 60.9186 9.56817 60.946C9.88604 60.9733 10.1949 61.0655 10.4758 61.2169C10.7567 61.3682 11.0036 61.5755 11.2012 61.826C11.3989 62.0764 11.5432 62.3647 11.6251 62.673C11.6684 62.8327 11.7451 62.9814 11.85 63.1094C11.9549 63.2373 12.0858 63.3415 12.2339 63.4153C12.382 63.489 12.5441 63.5305 12.7094 63.5371C12.8747 63.5437 13.0395 63.5152 13.1931 63.4535C13.4995 63.3348 13.8274 63.2816 14.1557 63.2972C14.4839 63.3128 14.8053 63.3969 15.0991 63.5441C15.3929 63.6914 15.6527 63.8985 15.8617 64.1521C16.0707 64.4057 16.2243 64.7003 16.3126 65.0168C16.3559 65.1765 16.4326 65.3252 16.5375 65.4531C16.6424 65.581 16.7733 65.6853 16.9214 65.759C17.0695 65.8327 17.2316 65.8743 17.3969 65.8809C17.5622 65.8875 17.727 65.859 17.8806 65.7973C18.2015 65.6669 18.5473 65.6094 18.8932 65.6287C19.239 65.648 19.5763 65.7438 19.8807 65.909C20.1851 66.0743 20.4491 66.305 20.6537 66.5845C20.8583 66.864 20.9984 67.1854 21.0639 67.5256C21.1294 67.8657 21.1187 68.2161 21.0325 68.5517C20.9464 68.8872 20.787 69.1994 20.5657 69.4659C20.3444 69.7324 20.0668 69.9466 19.7529 70.093C19.439 70.2393 19.0965 70.3143 18.7501 70.3125H7.03135ZM23.4376 67.9688H51.5626C51.5675 68.794 51.7924 69.6031 52.2142 70.3125H22.786C23.2078 69.6031 23.4327 68.794 23.4376 67.9688ZM43.3595 60.9375H31.6407V39.8438H43.3595V60.9375ZM45.7032 63.2812V65.625H29.297V63.2812H45.7032ZM68.577 65.7188C69.1249 65.8656 69.6006 66.2067 69.9155 66.6784C70.2304 67.1501 70.363 67.7202 70.2885 68.2825C70.2141 68.8447 69.9377 69.3607 69.5109 69.7342C69.0841 70.1077 68.536 70.3133 67.9688 70.3125H56.2501C55.9037 70.3143 55.5612 70.2393 55.2473 70.093C54.9334 69.9466 54.6558 69.7324 54.4345 69.4659C54.2132 69.1994 54.0538 68.8872 53.9677 68.5517C53.8815 68.2161 53.8708 67.8657 53.9363 67.5256C54.0018 67.1854 54.1419 66.864 54.3465 66.5845C54.5511 66.305 54.8151 66.0743 55.1195 65.909C55.4239 65.7438 55.7612 65.648 56.107 65.6287C56.4529 65.6094 56.7987 65.6669 57.1196 65.7973C57.2732 65.859 57.438 65.8875 57.6033 65.8809C57.7686 65.8743 57.9307 65.8327 58.0788 65.759C58.2269 65.6853 58.3578 65.581 58.4627 65.4531C58.5676 65.3252 58.6443 65.1765 58.6876 65.0168C58.7758 64.7002 58.9293 64.4055 59.1382 64.1518C59.3472 63.898 59.607 63.6909 59.9008 63.5436C60.1947 63.3964 60.5161 63.3123 60.8444 63.2967C61.1728 63.2812 61.5007 63.3346 61.8071 63.4535C61.9607 63.5152 62.1255 63.5437 62.2908 63.5371C62.4561 63.5305 62.6182 63.489 62.7663 63.4153C62.9144 63.3415 63.0453 63.2373 63.1502 63.1094C63.2551 62.9814 63.3318 62.8327 63.3751 62.673C63.4571 62.3647 63.6013 62.0764 63.799 61.826C63.9966 61.5755 64.2435 61.3682 64.5244 61.2169C64.8053 61.0655 65.1142 60.9733 65.432 60.946C65.7499 60.9186 66.07 60.9567 66.3726 61.0578C66.6752 61.159 66.9539 61.321 67.1914 61.534C67.429 61.747 67.6204 62.0064 67.7538 62.2962C67.8872 62.586 67.9599 62.9001 67.9672 63.2191C67.9746 63.538 67.9165 63.8551 67.7966 64.1508C67.7349 64.3043 67.7064 64.4691 67.713 64.6345C67.7196 64.7998 67.7611 64.9618 67.8348 65.11C67.9086 65.2581 68.0128 65.3889 68.1407 65.4938C68.2687 65.5988 68.4174 65.6754 68.577 65.7188ZM65.6251 58.5938C64.7965 58.5964 63.9835 58.8186 63.2688 59.2377C62.554 59.6568 61.9632 60.2579 61.5563 60.9797C60.6306 60.861 59.6905 61.0205 58.8557 61.4379C58.021 61.8552 57.3293 62.5116 56.8688 63.3234C56.6638 63.2953 56.4571 63.2812 56.2501 63.2812C55.431 63.2838 54.6269 63.5017 53.9185 63.9131C53.2102 64.3245 52.6224 64.9148 52.2142 65.625H48.047V62.1094C48.047 61.7986 47.9235 61.5005 47.7037 61.2807C47.484 61.061 47.1859 60.9375 46.8751 60.9375H45.7032V38.6719C45.7032 38.3611 45.5798 38.063 45.36 37.8432C45.1402 37.6235 44.8421 37.5 44.5313 37.5H30.4689C30.1581 37.5 29.86 37.6235 29.6402 37.8432C29.4204 38.063 29.297 38.3611 29.297 38.6719V60.9375H28.1251C27.8143 60.9375 27.5162 61.061 27.2965 61.2807C27.0767 61.5005 26.9532 61.7986 26.9532 62.1094V65.625H22.786C22.3778 64.9148 21.79 64.3245 21.0817 63.9131C20.3733 63.5017 19.5692 63.2838 18.7501 63.2812C18.5431 63.2812 18.3364 63.2953 18.1314 63.3234C17.6704 62.5121 16.9787 61.856 16.144 61.4387C15.3094 61.0214 14.3695 60.8616 13.4439 60.9797C13.037 60.2579 12.4462 59.6568 11.7314 59.2377C11.0167 58.8186 10.2037 58.5964 9.3751 58.5938V27.2203L37.5001 10.7332L65.6251 27.2203V58.5938ZM67.8036 25.7812L38.0931 8.36484C37.9133 8.25936 37.7086 8.20375 37.5001 8.20375C37.2916 8.20375 37.0869 8.25936 36.9071 8.36484L7.19658 25.7812L7.03135 25.8773L4.6876 27.252V24.109L37.5001 4.87383L70.3126 24.109V27.252L67.9688 25.8773L67.8036 25.7812Z" fill="#3FD0D4"/>
<path d="M26.2214 3.1086L9.81836 12.7311L11.0037 14.7516L27.4068 5.12917L26.2214 3.1086Z" fill="#3FD0D4"/>
<path d="M7.26594 14.2228L5.2666 15.3957L6.45192 17.4162L8.45126 16.2434L7.26594 14.2228Z" fill="#3FD0D4"/>
<path d="M30.4688 25.7812V31.6406C30.4688 31.9514 30.5922 32.2495 30.812 32.4693C31.0318 32.689 31.3298 32.8125 31.6406 32.8125H43.3594C43.6702 32.8125 43.9682 32.689 44.188 32.4693C44.4078 32.2495 44.5312 31.9514 44.5312 31.6406V25.7812C44.5312 23.9164 43.7905 22.128 42.4718 20.8094C41.1532 19.4908 39.3648 18.75 37.5 18.75C35.6352 18.75 33.8468 19.4908 32.5282 20.8094C31.2095 22.128 30.4688 23.9164 30.4688 25.7812ZM36.3281 21.2602V24.6094H32.9789C33.1885 23.8035 33.6094 23.0682 34.1982 22.4794C34.787 21.8907 35.5223 21.4697 36.3281 21.2602ZM32.8125 26.9531H36.3281V30.4688H32.8125V26.9531ZM38.6719 30.4688V26.9531H42.1875V30.4688H38.6719ZM42.0211 24.6094H38.6719V21.2602C39.4777 21.4697 40.213 21.8907 40.8018 22.4794C41.3906 23.0682 41.8115 23.8035 42.0211 24.6094Z" fill="#3FD0D4"/>
<path d="M50.3906 51.5625H62.1094C62.4202 51.5625 62.7182 51.439 62.938 51.2193C63.1578 50.9995 63.2812 50.7014 63.2812 50.3906V38.6719C63.2812 38.3611 63.1578 38.063 62.938 37.8432C62.7182 37.6235 62.4202 37.5 62.1094 37.5H50.3906C50.0798 37.5 49.7818 37.6235 49.562 37.8432C49.3422 38.063 49.2188 38.3611 49.2188 38.6719V50.3906C49.2188 50.7014 49.3422 50.9995 49.562 51.2193C49.7818 51.439 50.0798 51.5625 50.3906 51.5625ZM51.5625 49.2188V46.875H60.9375V49.2188H51.5625ZM60.9375 39.8438V44.5312H51.5625V39.8438H60.9375Z" fill="#3FD0D4"/>
<path d="M24.6094 37.5H12.8906C12.5798 37.5 12.2818 37.6235 12.062 37.8432C11.8422 38.063 11.7188 38.3611 11.7188 38.6719V50.3906C11.7188 50.7014 11.8422 50.9995 12.062 51.2193C12.2818 51.439 12.5798 51.5625 12.8906 51.5625H24.6094C24.9202 51.5625 25.2182 51.439 25.438 51.2193C25.6578 50.9995 25.7812 50.7014 25.7812 50.3906V38.6719C25.7812 38.3611 25.6578 38.063 25.438 37.8432C25.2182 37.6235 24.9202 37.5 24.6094 37.5ZM23.4375 39.8438V44.5312H14.0625V39.8438H23.4375ZM14.0625 49.2188V46.875H23.4375V49.2188H14.0625Z" fill="#3FD0D4"/>
<path d="M72.6562 37.5H70.3125V53.9062H72.6562V37.5Z" fill="#3FD0D4"/>
</svg>
