<svg width="25" height="25" viewBox="0 0 25 25" fill="none" xmlns="http://www.w3.org/2000/svg">
<g clip-path="url(#clip0_379_100)">
<path d="M0 1.5625C0 0.698242 0.698242 0 1.5625 0H23.4375C24.3018 0 25 0.698242 25 1.5625C25 2.42676 24.3018 3.125 23.4375 3.125V21.875C24.3018 21.875 25 22.5732 25 23.4375C25 24.3018 24.3018 25 23.4375 25H14.8438V22.6562C14.8438 21.3623 13.7939 20.3125 12.5 20.3125C11.2061 20.3125 10.1562 21.3623 10.1562 22.6562V25H1.5625C0.698242 25 0 24.3018 0 23.4375C0 22.5732 0.698242 21.875 1.5625 21.875V3.125C0.698242 3.125 0 2.42676 0 1.5625ZM4.6875 5.46875V7.03125C4.6875 7.46094 5.03906 7.8125 5.46875 7.8125H7.03125C7.46094 7.8125 7.8125 7.46094 7.8125 7.03125V5.46875C7.8125 5.03906 7.46094 4.6875 7.03125 4.6875H5.46875C5.03906 4.6875 4.6875 5.03906 4.6875 5.46875ZM11.7188 4.6875C11.2891 4.6875 10.9375 5.03906 10.9375 5.46875V7.03125C10.9375 7.46094 11.2891 7.8125 11.7188 7.8125H13.2812C13.7109 7.8125 14.0625 7.46094 14.0625 7.03125V5.46875C14.0625 5.03906 13.7109 4.6875 13.2812 4.6875H11.7188ZM17.1875 5.46875V7.03125C17.1875 7.46094 17.5391 7.8125 17.9688 7.8125H19.5312C19.9609 7.8125 20.3125 7.46094 20.3125 7.03125V5.46875C20.3125 5.03906 19.9609 4.6875 19.5312 4.6875H17.9688C17.5391 4.6875 17.1875 5.03906 17.1875 5.46875ZM5.46875 9.375C5.03906 9.375 4.6875 9.72656 4.6875 10.1562V11.7188C4.6875 12.1484 5.03906 12.5 5.46875 12.5H7.03125C7.46094 12.5 7.8125 12.1484 7.8125 11.7188V10.1562C7.8125 9.72656 7.46094 9.375 7.03125 9.375H5.46875ZM10.9375 10.1562V11.7188C10.9375 12.1484 11.2891 12.5 11.7188 12.5H13.2812C13.7109 12.5 14.0625 12.1484 14.0625 11.7188V10.1562C14.0625 9.72656 13.7109 9.375 13.2812 9.375H11.7188C11.2891 9.375 10.9375 9.72656 10.9375 10.1562ZM17.9688 9.375C17.5391 9.375 17.1875 9.72656 17.1875 10.1562V11.7188C17.1875 12.1484 17.5391 12.5 17.9688 12.5H19.5312C19.9609 12.5 20.3125 12.1484 20.3125 11.7188V10.1562C20.3125 9.72656 19.9609 9.375 19.5312 9.375H17.9688ZM16.0156 18.75C16.665 18.75 17.2021 18.2178 17.041 17.5879C16.5234 15.5615 14.6875 14.0625 12.5 14.0625C10.3125 14.0625 8.47168 15.5615 7.95898 17.5879C7.79785 18.2129 8.33984 18.75 8.98438 18.75H16.0156Z" fill="#3FD0D4"/>
</g>
<defs>
<clipPath id="clip0_379_100">
<rect width="25" height="25" fill="white"/>
</clipPath>
</defs>
</svg>
