<svg width="13" height="13" viewBox="0 0 13 13" fill="none" xmlns="http://www.w3.org/2000/svg">
<path d="M11.588 4.40424H8.121C8.131 4.28323 8.137 4.16125 8.137 4.03723C8.137 1.81125 6.312 0.000244141 4.069 0.000244141C3.354 0.000244141 2.651 0.187256 2.036 0.540253C1.918 0.607239 1.877 0.757233 1.946 0.874237C2.014 0.991241 2.165 1.03125 2.282 0.963257C2.823 0.653229 3.441 0.490234 4.069 0.490234C6.04 0.490234 7.644 2.08124 7.644 4.03723C7.644 5.99423 6.04 7.58524 4.069 7.58524C3.243 7.58524 2.468 7.31424 1.827 6.80124C1.762 6.74924 1.677 6.73425 1.599 6.75824L0.945 6.92825L1.201 6.36826C1.238 6.28824 1.229 6.19525 1.176 6.12323C0.729 5.51425 0.493 4.79324 0.493 4.03723C0.493 3.41324 0.659 2.79825 0.973 2.26123C1.041 2.14426 1.001 1.99423 0.883 1.92624C0.766 1.85925 0.615 1.89825 0.546 2.01523C0.189 2.62723 0 3.32623 0 4.03723C0 4.84924 0.24 5.62625 0.694 6.29324L0.281 7.19324C0.242 7.27924 0.256 7.38025 0.317 7.45224C0.378 7.52423 0.476 7.55524 0.568 7.53125L1.617 7.25925C2.319 7.78625 3.185 8.07526 4.069 8.07526C4.261 8.07526 4.45 8.06125 4.635 8.03525V10.1783C4.635 10.7442 5.1 11.2052 5.671 11.2052H9.158L10.717 12.4713C10.762 12.5072 10.817 12.5262 10.873 12.5262C10.909 12.5262 10.945 12.5182 10.979 12.5032C11.065 12.4622 11.12 12.3763 11.12 12.2812V11.2052H11.588C12.159 11.2052 12.624 10.7442 12.624 10.1783V5.43124C12.624 4.86523 12.159 4.40424 11.588 4.40424ZM12.131 10.1783C12.131 10.4742 11.887 10.7162 11.588 10.7162H10.873C10.737 10.7162 10.627 10.8253 10.627 10.9602V11.7652L9.409 10.7773C9.342 10.7162 9.283 10.7162 9.151 10.7162H5.671C5.372 10.7162 5.128 10.4742 5.128 10.1783V7.93524C6.587 7.54526 7.723 6.36826 8.045 4.89325H11.588C11.887 4.89325 12.131 5.13525 12.131 5.43124V10.1783Z" fill="white"/>
<path d="M9.85592 8.52914C9.93991 8.49014 9.99792 8.40616 9.99792 8.30817C9.99792 8.17316 9.88791 8.06314 9.75092 8.06314H9.65092L8.85491 6.26514C8.81592 6.17615 8.72692 6.11816 8.62992 6.11816C8.53191 6.11816 8.44291 6.17615 8.40392 6.26514L7.60892 8.06314H7.50792C7.37192 8.06314 7.26092 8.17316 7.26092 8.30817C7.26092 8.40616 7.31891 8.49014 7.40292 8.52914L7.10691 9.19916C7.05192 9.32214 7.10892 9.46716 7.23291 9.52115C7.35791 9.57516 7.50291 9.51917 7.55792 9.39514L7.93092 8.55215H9.32792L9.70092 9.39514C9.74191 9.48715 9.83191 9.54214 9.92692 9.54214C9.95992 9.54214 9.99392 9.53516 10.0259 9.52115C10.1509 9.46716 10.2069 9.32214 10.1529 9.19916L9.85592 8.52914ZM8.14692 8.06314L8.62992 6.97214L9.11192 8.06314H8.14692Z" fill="white"/>
<path d="M1.36614 1.60034C1.43114 1.60034 1.49414 1.57434 1.54014 1.52933C1.58614 1.48334 1.61314 1.42035 1.61314 1.35632C1.61314 1.29132 1.58614 1.22833 1.54014 1.18335C1.49414 1.13733 1.43114 1.11133 1.36614 1.11133C1.30114 1.11133 1.23814 1.13733 1.19214 1.18335C1.14614 1.22833 1.11914 1.29132 1.11914 1.35632C1.11914 1.42035 1.14614 1.48334 1.19214 1.52933C1.23814 1.57434 1.30114 1.60034 1.36614 1.60034Z" fill="white"/>
<path d="M2.59679 5.52637C2.47779 5.59137 2.43379 5.74036 2.49879 5.85938C2.54379 5.94037 2.62879 5.98636 2.71579 5.98636C2.75579 5.98636 2.79579 5.97638 2.83379 5.95535C3.38379 5.65637 3.80679 5.19138 4.05379 4.64236C4.30179 5.19138 4.72479 5.65637 5.27479 5.95535C5.31179 5.97638 5.35279 5.98636 5.39279 5.98636C5.47979 5.98636 5.56479 5.94037 5.60879 5.85938C5.67479 5.74036 5.63079 5.59137 5.51179 5.52637C4.86779 5.17636 4.43479 4.55035 4.32679 3.84335H5.42179C5.55779 3.84335 5.66879 3.73337 5.66879 3.59836C5.66879 3.46338 5.55779 3.35437 5.42179 3.35437H4.30079V2.33435C4.30079 2.19937 4.19079 2.08936 4.05379 2.08936C3.91779 2.08936 3.80779 2.19937 3.80779 2.33435V3.35437H2.91679C2.78079 3.35437 2.67079 3.46338 2.67079 3.59836C2.67079 3.73337 2.78079 3.84335 2.91679 3.84335H3.78079C3.67379 4.55035 3.24079 5.17636 2.59679 5.52637Z" fill="white"/>
</svg>
