<svg width="12" height="16" viewBox="0 0 12 16" fill="none" xmlns="http://www.w3.org/2000/svg">
<path d="M5.582 0C2.504 0 0 2.405 0 5.36099C0 6.35999 0.288002 7.33398 0.833 8.17999L5.264 15.037C5.349 15.168 5.498 15.248 5.659 15.248H5.663C5.825 15.247 5.975 15.164 6.058 15.031L10.376 8.10699C10.891 7.28 11.163 6.32999 11.163 5.36099C11.163 2.405 8.659 0 5.582 0ZM9.578 7.64899L5.652 13.943L1.624 7.70898C1.17 7.00497 0.924004 6.19299 0.924004 5.36099C0.924004 2.89798 3.017 0.888 5.582 0.888C8.146 0.888 10.236 2.89798 10.236 5.36099C10.236 6.16898 10.006 6.95999 9.578 7.64899Z" fill="white"/>
<path d="M5.58202 2.68091C4.04301 2.68091 2.79102 3.8829 2.79102 5.3609C2.79102 6.82889 4.02202 8.04089 5.58202 8.04089C7.16002 8.04089 8.37302 6.8129 8.37302 5.3609C8.37302 3.8829 7.12102 2.68091 5.58202 2.68091ZM5.58202 7.1539C4.55002 7.1539 3.71501 6.34891 3.71501 5.3609C3.71501 4.37589 4.55602 3.5679 5.58202 3.5679C6.60802 3.5679 7.44501 4.37589 7.44501 5.3609C7.44501 6.33389 6.62901 7.1539 5.58202 7.1539Z" fill="white"/>
</svg>
