<svg width="75" height="76" viewBox="0 0 75 76" fill="none" xmlns="http://www.w3.org/2000/svg">
<g clip-path="url(#clip0_473_218)">
<path d="M29.2461 68.9935C29.2461 69.6403 28.7322 70.1706 28.0854 70.1706C27.4385 70.1706 26.9082 69.6403 26.9082 68.9935V54.2513C26.9082 53.2569 27.3389 52.361 28.0355 51.7148C28.7158 51.0849 29.6281 50.7034 30.6395 50.7034H44.3527C45.3641 50.7034 46.2928 51.0843 46.9555 51.7148C47.6516 52.3616 48.084 53.2569 48.084 54.2513V68.9935C48.084 69.6403 47.5695 70.1706 46.9227 70.1706C46.2758 70.1706 45.7455 69.6403 45.7455 68.9935V54.2513C45.7455 53.9366 45.6125 53.6378 45.3805 53.4228C45.1156 53.1907 44.767 53.0413 44.3527 53.0413H38.6645V68.9941C38.6645 69.6409 38.1512 70.1712 37.5043 70.1712C36.858 70.1712 36.3271 69.6409 36.3271 68.9941V53.0407H30.6395C30.2416 53.0407 29.893 53.1907 29.6281 53.4222C29.3961 53.6372 29.2467 53.936 29.2467 54.2507L29.2461 68.9935Z" fill="#3FD0D4"/>
<path d="M25.9469 34.9833H33.6074C34.2543 34.9833 34.7682 35.4977 34.7682 36.144V43.2749C34.7682 43.9218 34.2543 44.4345 33.6074 44.4345H25.9469C25.3 44.4345 24.7861 43.9212 24.7861 43.2749V36.144C24.7855 35.4977 25.3 34.9833 25.9469 34.9833ZM25.9469 20.8054H33.6074C34.2543 20.8054 34.7682 21.3198 34.7682 21.9661V29.0964C34.7682 29.7433 34.2543 30.2571 33.6074 30.2571H25.9469C25.3 30.2571 24.7861 29.7427 24.7861 29.0964V21.9667C24.7855 21.3198 25.3 20.8054 25.9469 20.8054ZM32.4303 23.1444H27.124V27.9192H32.4303V23.1444ZM45.2313 27.9192C45.8781 27.9192 46.3914 28.4501 46.3914 29.097C46.3914 29.7438 45.8775 30.2577 45.2313 30.2577H41.401C40.7541 30.2577 40.2232 29.7432 40.2232 29.097V21.9667C40.2232 21.3198 40.7535 20.8059 41.401 20.8059C42.0479 20.8059 42.5617 21.3204 42.5617 21.9667V27.9192H45.2313ZM41.401 34.9833H49.0451C49.692 34.9833 50.2223 35.4977 50.2223 36.144V43.2749C50.2223 43.9218 49.692 44.4345 49.0451 44.4345H41.401C40.7541 44.4345 40.2232 43.9212 40.2232 43.2749V36.144C40.2232 35.4977 40.7541 34.9833 41.401 34.9833ZM47.885 37.3218H42.5623V42.0972H47.885V37.3218ZM32.4303 37.3218H27.124V42.0972H32.4303V37.3218Z" fill="#3FD0D4"/>
<path d="M57.2033 35.929C56.8723 36.4763 56.1598 36.6749 55.6119 36.3433C55.4291 36.2272 55.2803 36.0784 55.1807 35.9126L45.1318 18.8823C44.6174 18.0034 44.1867 16.8761 43.9219 15.8812C43.6559 14.8528 43.5234 13.7923 43.5234 12.6972C43.5234 9.19795 44.9332 6.03154 47.2377 3.72588C49.5264 1.43838 52.6934 0.012207 56.209 0.012207C59.7076 0.012207 62.8746 1.43838 65.1797 3.72646C67.4678 6.03213 68.8945 9.19853 68.8945 12.6978C68.8945 13.7923 68.7451 14.8534 68.4803 15.8817C68.2143 16.9435 67.7994 17.9378 67.2861 18.8665L57.2033 35.929ZM56.209 33.0433L65.2623 17.7046C65.6771 16.9587 66.0088 16.146 66.2244 15.3005C66.4395 14.4708 66.5555 13.6089 66.5555 12.6972C66.5555 9.84482 65.3959 7.2585 63.5215 5.38467C61.6477 3.51143 59.0607 2.3501 56.209 2.3501C53.3402 2.3501 50.7533 3.51084 48.8801 5.38467C47.0221 7.2585 45.8619 9.84482 45.8619 12.6972C45.8619 13.6095 45.9773 14.4708 46.1771 15.3005C46.3922 16.129 46.7238 16.9253 47.1217 17.6712L56.209 33.0433Z" fill="#3FD0D4"/>
<path d="M56.2086 5.93195C58.066 5.93195 59.757 6.69542 60.9834 7.92179C62.2109 9.13234 62.9738 10.8234 62.9738 12.6972C62.9738 14.5704 62.2104 16.2626 60.9834 17.4896C59.7564 18.7001 58.066 19.4624 56.2086 19.4624C54.3348 19.4624 52.6432 18.7001 51.4162 17.4896C50.1893 16.2626 49.4434 14.571 49.4434 12.6972C49.4434 10.8234 50.1893 9.13234 51.4162 7.92179C52.6432 6.69484 54.3342 5.93195 56.2086 5.93195ZM59.3258 9.56359C58.5295 8.76788 57.4191 8.27042 56.2086 8.27042C54.9816 8.27042 53.8701 8.76788 53.0744 9.56359C52.2781 10.3763 51.7812 11.4702 51.7812 12.6978C51.7812 13.9247 52.2781 15.0357 53.0744 15.8319C53.8695 16.6276 54.9816 17.1251 56.2086 17.1251C57.4191 17.1251 58.5295 16.6276 59.3258 15.8319C60.1379 15.0362 60.6354 13.9247 60.6354 12.6978C60.6354 11.4702 60.1379 10.3763 59.3258 9.56359Z" fill="#3FD0D4"/>
<path d="M61.6135 56.9712C60.9666 56.9712 60.4539 56.4409 60.4539 55.794C60.4539 55.1472 60.9672 54.6327 61.6135 54.6327H65.8586C67.3181 54.6327 68.6119 55.4788 69.1756 56.8218L74.664 70.187C74.8961 70.7507 74.9787 71.3149 74.9125 71.8786C74.7965 73.023 74.033 74.0835 73.0217 74.6144C72.5078 74.8798 71.9441 75.0128 71.3476 75.0128H3.66072C3.06365 75.0128 2.49998 74.8798 1.98612 74.6144C0.957795 74.0835 0.211897 73.023 0.0794747 71.8786C0.02967 71.3149 0.112287 70.7507 0.327912 70.187L5.83338 56.8218C6.39705 55.4788 7.69022 54.6327 9.14979 54.6327H13.3615C14.0084 54.6327 14.5222 55.1478 14.5222 55.794C14.5222 56.4403 14.0084 56.9712 13.3615 56.9712H9.14979C8.63592 56.9712 8.18768 57.2196 7.98905 57.7171L2.50057 71.0817C2.41737 71.2651 2.38455 71.4468 2.40096 71.6296C2.45076 72.011 2.71619 72.3591 3.04783 72.5419C3.23006 72.6251 3.42869 72.6749 3.66131 72.6749H71.3488C71.5808 72.6749 71.7795 72.6251 71.9459 72.5419C72.2945 72.3591 72.5594 72.0116 72.5928 71.6296C72.6092 71.4468 72.5928 71.2651 72.5096 71.0817L67.0211 57.7171C66.8219 57.219 66.3742 56.9712 65.8603 56.9712H61.6135Z" fill="#3FD0D4"/>
<path d="M55.0314 40.9528C55.0314 40.306 55.5617 39.7751 56.2086 39.7751C56.8555 39.7751 57.3693 40.306 57.3693 40.9528V68.9929C57.3693 69.6398 56.8549 70.17 56.2086 70.17H18.7994C18.1525 70.17 17.6387 69.6398 17.6387 68.9929V17.7386C17.6387 16.7437 18.0699 15.8478 18.7666 15.2015C19.4299 14.571 20.3586 14.1732 21.3699 14.1732H39.8252C40.4721 14.1732 40.9859 14.7034 40.9859 15.3509C40.9859 15.9978 40.4715 16.528 39.8252 16.528H21.3699C20.9551 16.528 20.607 16.661 20.3422 16.9095C20.1102 17.1245 19.9771 17.4234 19.9771 17.7386V67.8316H55.032L55.0314 40.9528Z" fill="#3FD0D4"/>
</g>
<defs>
<clipPath id="clip0_473_218">
<rect width="75" height="75" fill="white" transform="translate(0 0.012207)"/>
</clipPath>
</defs>
</svg>
