<svg width="75" height="76" viewBox="0 0 75 76" fill="none" xmlns="http://www.w3.org/2000/svg">
<g clip-path="url(#clip0_473_173)">
<path d="M74.5159 47.9199C74.0145 47.5796 73.3306 47.711 72.9884 48.2114C72.8963 48.3463 70.683 51.5146 66.6187 51.5146C62.5542 51.5146 60.3411 48.3463 60.2511 48.2151C59.8463 47.5736 58.8279 47.5744 58.4235 48.216C58.4013 48.2489 56.1629 51.5148 52.0621 51.5148C48.6248 51.5148 46.5119 49.2493 45.8872 48.4704V31.4127H73.8994C74.5074 31.4127 75.0002 30.92 75.0002 30.3119C75.0002 29.7039 74.5074 29.2111 73.8994 29.2111H65.047V21.1881C65.047 13.9096 59.1959 7.93159 52.0038 7.86201C48.4654 7.82642 45.1287 9.18315 42.6093 11.6782C41.3895 12.8863 40.4377 14.2893 39.7775 15.8155C37.7426 11.1818 33.1666 7.91343 27.8599 7.86201C27.8163 7.86157 27.7726 7.86142 27.729 7.86142C24.239 7.86142 20.9536 9.21392 18.4653 11.6782C15.9455 14.1739 14.5575 17.4966 14.5575 21.0342V29.2112H1.18439C0.576337 29.2112 0.0835634 29.704 0.0835634 30.3121C0.0835634 30.9201 0.576337 31.4129 1.18439 31.4129H14.5575V35.76C14.5575 36.368 15.0503 36.8608 15.6584 36.8608C16.2664 36.8608 16.7592 36.368 16.7592 35.76V21.0342C16.7592 18.0885 17.9153 15.3214 20.0147 13.2424C22.1133 11.1641 24.8897 10.0285 27.8388 10.0635C33.8284 10.1214 38.7015 15.112 38.7015 21.1881V29.2111H35.9191V21.0342C35.9191 16.5957 32.3094 12.9228 27.8727 12.8467C27.8258 12.846 27.7795 12.8456 27.7328 12.8456C25.6082 12.8456 23.595 13.6766 22.0508 15.1946C20.4562 16.7621 19.5417 18.9364 19.5417 21.1599V50.7046C18.0742 49.9676 17.1336 48.9271 16.7591 48.4578V40.163C16.7591 39.5549 16.2663 39.0622 15.6582 39.0622C15.0502 39.0622 14.5574 39.5549 14.5574 40.163V48.4689C13.9304 49.2507 11.8178 51.5146 8.3819 51.5146C4.3174 51.5146 2.10432 48.3463 2.01437 48.2151C1.67512 47.7106 0.991181 47.5767 0.486688 47.9158C-0.0178037 48.2549 -0.151837 48.9389 0.187421 49.4435C0.304608 49.618 3.12062 53.7163 8.38176 53.7163C11.9787 53.7163 14.4326 51.8009 15.6626 50.5332C16.8926 51.8009 19.3467 53.7163 22.9435 53.7163C26.5395 53.7163 28.9906 51.8019 30.2196 50.5338C31.45 51.8016 33.9037 53.7163 37.4998 53.7163C41.0967 53.7163 43.5506 51.8009 44.7806 50.5332C46.0107 51.8009 48.4647 53.7163 52.0615 53.7163C55.6575 53.7163 58.1087 51.8019 59.3377 50.5338C60.568 51.8016 63.0217 53.7163 66.6178 53.7163C71.8791 53.7163 74.6949 49.618 74.8121 49.4435C75.1511 48.9403 75.0176 48.2602 74.5159 47.9199ZM21.7433 39.0623H38.7015V42.1443H21.7433V39.0623ZM38.7015 36.8606H21.7433V31.4127H38.7015V36.8606ZM23.5943 16.7647C24.748 15.6307 26.2536 15.0211 27.8349 15.0481C31.0786 15.1038 33.7175 17.7891 33.7175 21.0343V29.2114H21.7435V21.16C21.7433 19.5229 22.418 17.9209 23.5943 16.7647ZM31.1328 48.2151C30.7284 47.5771 29.715 47.5767 29.3076 48.2124C29.2156 48.3472 27.0075 51.5146 22.9439 51.5146C22.5234 51.5146 22.1239 51.4792 21.7433 51.4183V44.3458H38.7015V51.4181C38.3208 51.479 37.9211 51.5146 37.5002 51.5146C33.4359 51.5146 31.2226 48.3463 31.1328 48.2151ZM40.903 50.7042V21.0342C40.903 18.0885 42.0591 15.3214 44.1585 13.2424C46.2572 11.1641 49.0338 10.0285 51.9825 10.0635C57.9723 10.1214 62.8454 15.112 62.8454 21.1881V29.2111H60.0629V26.7641C60.0629 26.156 59.5701 25.6632 58.9621 25.6632C58.354 25.6632 57.8612 26.156 57.8612 26.7641V29.2111H45.887V21.1597C45.887 19.5228 46.5617 17.9208 47.738 16.7645C48.8917 15.6304 50.3945 15.0208 51.9786 15.0478C55.2223 15.1035 57.8612 17.7888 57.8612 21.034V22.3609C57.8612 22.9689 58.354 23.4617 58.9621 23.4617C59.5701 23.4617 60.0629 22.9689 60.0629 22.3609V21.034C60.0629 16.5956 56.4532 12.9226 52.0165 12.8466C51.9696 12.8458 51.9234 12.8454 51.8766 12.8454C49.752 12.8454 47.739 13.6764 46.1946 15.1944C44.6002 16.762 43.6855 18.9362 43.6855 21.1597V48.4563C43.3099 48.9276 42.3694 49.9676 40.903 50.7042Z" fill="#3FD0D4"/>
<path d="M30.225 64.9615C26.1605 64.9615 23.9474 61.7932 23.8575 61.6619C23.4533 61.0243 22.4407 61.0237 22.0329 61.6584C21.9407 61.7933 19.7275 64.9616 15.6632 64.9616C11.5988 64.9616 9.38557 61.7933 9.29562 61.6621C8.95637 61.1574 8.27243 61.0236 7.76794 61.3628C7.26345 61.7019 7.12941 62.3859 7.46867 62.8903C7.58586 63.0648 10.4017 67.1632 15.663 67.1632C19.2599 67.1632 21.7138 65.2477 22.9439 63.9801C24.1739 65.2477 26.6279 67.1632 30.2249 67.1632C30.8329 67.1632 31.3257 66.6704 31.3257 66.0623C31.3257 65.4543 30.8331 64.9615 30.225 64.9615Z" fill="#3FD0D4"/>
<path d="M67.234 61.3662C66.732 61.0265 66.0485 61.1586 65.7066 61.6593C65.6146 61.794 63.4067 64.9615 59.3429 64.9615C55.2784 64.9615 53.0653 61.7932 52.9754 61.6619C52.5708 61.0209 51.553 61.0211 51.1484 61.6619C51.1261 61.6949 48.8824 64.9615 44.7809 64.9615C40.7164 64.9615 38.5033 61.7932 38.4133 61.6619C38.0089 61.024 36.9955 61.0235 36.5881 61.6593C36.5794 61.672 35.6911 62.9571 34.0524 63.9135C33.5274 64.2201 33.3501 64.8942 33.6567 65.4192C33.9633 65.9441 34.6371 66.1212 35.1624 65.815C36.1736 65.2247 36.9555 64.5386 37.4991 63.979C38.7289 65.2467 41.1831 67.1631 44.7809 67.1631C48.3778 67.1631 50.8317 65.2477 52.0617 63.98C53.2918 65.2477 55.7458 67.1631 59.3426 67.1631C64.6046 67.1631 67.4152 63.0639 67.5322 62.8895C67.8703 62.3857 67.7361 61.7059 67.234 61.3662Z" fill="#3FD0D4"/>
</g>
<defs>
<clipPath id="clip0_473_173">
<rect width="75" height="75" fill="white" transform="translate(0 0.012207)"/>
</clipPath>
</defs>
</svg>
