<svg width="27" height="27" viewBox="0 0 27 27" fill="none" xmlns="http://www.w3.org/2000/svg">
<path d="M27 13.5C27 14.652 25.5847 15.6015 25.3012 16.6635C25.0087 17.7615 25.749 19.2915 25.1932 20.2523C24.6285 21.2288 22.9297 21.3457 22.1377 22.1377C21.3457 22.9297 21.2288 24.6285 20.2523 25.1932C19.2915 25.749 17.7615 25.0087 16.6635 25.3012C15.6015 25.5847 14.652 27 13.5 27C12.348 27 11.3985 25.5847 10.3365 25.3012C9.2385 25.0087 7.7085 25.749 6.74775 25.1932C5.77125 24.6285 5.65425 22.9297 4.86225 22.1377C4.07025 21.3457 2.3715 21.2288 1.80675 20.2523C1.251 19.2915 1.99125 17.7615 1.69875 16.6635C1.41525 15.6015 0 14.652 0 13.5C0 12.348 1.41525 11.3985 1.69875 10.3365C1.99125 9.2385 1.251 7.7085 1.80675 6.74775C2.3715 5.77125 4.07025 5.65425 4.86225 4.86225C5.65425 4.07025 5.77125 2.3715 6.74775 1.80675C7.7085 1.251 9.2385 1.99125 10.3365 1.69875C11.3985 1.41525 12.348 0 13.5 0C14.652 0 15.6015 1.41525 16.6635 1.69875C17.7615 1.99125 19.2915 1.251 20.2523 1.80675C21.2288 2.3715 21.3457 4.07025 22.1377 4.86225C22.9297 5.65425 24.6285 5.77125 25.1932 6.74775C25.749 7.7085 25.0087 9.2385 25.3012 10.3365C25.5847 11.3985 27 12.348 27 13.5Z" fill="#26CBB7"/>
<path d="M17.4017 9.47666L12.2627 14.6157L9.59875 11.9539C9.0205 11.3757 8.08225 11.3757 7.504 11.9539C6.92575 12.5322 6.92575 13.4704 7.504 14.0487L11.2412 17.7859C11.8037 18.3484 12.7172 18.3484 13.2797 17.7859L19.4942 11.5714C20.0725 10.9932 20.0725 10.0549 19.4942 9.47666C18.916 8.89841 17.98 8.89841 17.4017 9.47666Z" fill="#FCFDFF"/>
</svg>
