<svg width="11" height="14" viewBox="0 0 11 14" fill="none" xmlns="http://www.w3.org/2000/svg">
<path d="M9.57972 7.61574L7.57171 4.40175C7.85572 4.24874 8.05072 3.94375 8.05072 3.59374C8.05072 3.20974 7.81771 2.88173 7.48871 2.74676L8.09671 0.574758C8.12271 0.481741 8.09771 0.380758 8.02971 0.311758C7.62471 -0.101267 6.96672 -0.101267 6.56171 0.311758C6.46571 0.410757 6.33671 0.464743 6.19971 0.464743C6.06271 0.464743 5.93371 0.410757 5.83671 0.310751L5.83571 0.309744C5.43271 -0.102244 4.77472 -0.103251 4.36972 0.306753L4.36271 0.314749C4.16272 0.517752 3.83771 0.516744 3.63871 0.313742L3.63671 0.311758C3.23272 -0.101267 2.57371 -0.101267 2.16971 0.311758C2.10172 0.380758 2.07671 0.481741 2.10271 0.574758L2.71271 2.74676C2.38271 2.88076 2.14872 3.20974 2.14872 3.59374C2.14872 3.94375 2.34372 4.24874 2.62771 4.40175L0.619713 7.61574C-0.157288 8.85876 -0.206288 10.3737 0.487713 11.6667C1.18271 12.9607 2.45971 13.7327 3.90371 13.7327H6.29471C7.73971 13.7327 9.01671 12.9607 9.71071 11.6667C10.4057 10.3737 10.3567 8.85876 9.57972 7.61574ZM3.26571 0.690756L3.26771 0.692739C3.67071 1.10476 4.32772 1.10573 4.73272 0.695761L4.74071 0.687735C4.94072 0.484762 5.26471 0.485739 5.46471 0.689749L5.46571 0.690756C5.87072 1.10375 6.52871 1.10375 6.93371 0.690756C7.09871 0.522757 7.34771 0.492758 7.54271 0.601736L6.95971 2.68175H3.24071L2.65671 0.601736C2.85171 0.492758 3.10071 0.522757 3.26571 0.690756ZM9.25071 11.4097C8.64972 12.5287 7.54471 13.1967 6.29571 13.1967H3.90371C2.65471 13.1967 1.54971 12.5287 0.948711 11.4097C0.347713 10.2908 0.390713 8.97976 1.06271 7.90374L3.18571 4.50576H3.91771C4.06271 4.50576 4.18071 4.38576 4.18071 4.23775C4.18071 4.08874 4.06271 3.96874 3.91771 3.96874H3.04171C2.83871 3.96874 2.67371 3.80074 2.67371 3.59374C2.67371 3.38674 2.83871 3.21773 3.04171 3.21773H7.15771C7.35971 3.21773 7.52472 3.38674 7.52472 3.59374C7.52472 3.80074 7.35971 3.96874 7.15771 3.96874H6.28171C6.13671 3.96874 6.01871 4.08874 6.01871 4.23775C6.01871 4.38576 6.13671 4.50576 6.28171 4.50576H7.01371L9.13671 7.90374C9.80871 8.97976 9.85171 10.2908 9.25071 11.4097Z" fill="white"/>
<path d="M5.56279 8.75983C5.4968 8.73581 5.42979 8.71182 5.36279 8.68582V7.46982C5.54079 7.5238 5.65979 7.61081 5.66479 7.61383C5.77979 7.70282 5.94379 7.67883 6.03179 7.56183C6.11879 7.44382 6.09579 7.27481 5.9808 7.18582C5.96479 7.17383 5.72079 6.98883 5.36279 6.91882V6.65182C5.36279 6.50381 5.2448 6.38281 5.09979 6.38281C4.9548 6.38281 4.83679 6.50381 4.83679 6.65182V6.91681C4.79279 6.9248 4.74779 6.93582 4.70179 6.94983C4.33179 7.06381 4.05579 7.38681 3.9808 7.79282C3.9118 8.16382 4.02879 8.52182 4.28479 8.72681C4.42279 8.83783 4.59679 8.93982 4.83679 9.04681V10.6028C4.62979 10.5898 4.49179 10.5418 4.2608 10.3878C4.13979 10.3058 3.97679 10.3408 3.8978 10.4648C3.81779 10.5888 3.85179 10.7548 3.97379 10.8368C4.30979 11.0608 4.5378 11.1248 4.83679 11.1398V11.4168C4.83679 11.5648 4.9548 11.6858 5.09979 11.6858C5.2448 11.6858 5.36279 11.5648 5.36279 11.4168V11.1118C5.9248 10.9858 6.25379 10.5068 6.3278 10.0588C6.42379 9.47183 6.12379 8.96283 5.56279 8.75983ZM4.60879 8.30481C4.50779 8.22382 4.46479 8.06583 4.4968 7.89282C4.52579 7.73282 4.63079 7.54083 4.83679 7.46982V8.45181C4.75079 8.40482 4.67279 8.3558 4.60879 8.30481ZM5.80979 9.96982C5.7718 10.1988 5.6198 10.4428 5.36279 10.5508V9.25681L5.38779 9.26581C5.85879 9.43582 5.8298 9.84781 5.80979 9.96982Z" fill="white"/>
<path d="M5.09991 4.50577C5.16891 4.50577 5.23692 4.47675 5.28592 4.42676C5.33492 4.37677 5.36292 4.30777 5.36292 4.23776C5.36292 4.16675 5.33492 4.09775 5.28592 4.04776C5.23692 3.99777 5.16891 3.96875 5.09991 3.96875C5.03091 3.96875 4.96291 3.99777 4.91392 4.04776C4.86491 4.09775 4.83691 4.16675 4.83691 4.23776C4.83691 4.30777 4.86491 4.37677 4.91392 4.42676C4.96291 4.47675 5.03091 4.50577 5.09991 4.50577Z" fill="white"/>
</svg>
