<svg width="23" height="28" viewBox="0 0 23 28" fill="none" xmlns="http://www.w3.org/2000/svg">
<path d="M22.4305 3.42953L11.7298 0.219274C11.58 0.174304 11.4203 0.174304 11.2704 0.219274L0.569533 3.42953C0.231511 3.53092 0 3.84209 0 4.19503V15.9659C0 17.4969 0.619832 19.0642 1.84218 20.6241C2.77574 21.8155 4.06735 23.0118 5.681 24.18C8.39184 26.1422 11.0612 27.346 11.1735 27.3962C11.2774 27.4427 11.3887 27.466 11.5001 27.466C11.6115 27.466 11.7228 27.4428 11.8267 27.3962C11.9389 27.346 14.6083 26.1422 17.3191 24.18C18.9328 23.0118 20.2243 21.8155 21.1579 20.6241C22.3803 19.0642 23 17.497 23 15.9659V4.19503C23 3.84209 22.7686 3.53092 22.4305 3.42953Z" fill="#26CBB7"/>
</svg>
