<svg width="10" height="12" viewBox="0 0 10 12" fill="none" xmlns="http://www.w3.org/2000/svg">
<path d="M1.32422 9.32812H6.61622V9.99411H1.32422V9.32812Z" fill="white"/>
<path d="M1.32422 7.99609H6.61622V8.66208H1.32422V7.99609Z" fill="white"/>
<path d="M3.97029 7.32904C5.2463 7.32904 6.28529 6.28302 6.28529 4.99704C6.28529 3.71204 5.2463 2.66504 3.97029 2.66504C2.69329 2.66504 1.6543 3.71204 1.6543 4.99704C1.6543 6.28302 2.69329 7.32904 3.97029 7.32904ZM2.3493 5.33102H2.98629C3.00729 5.73404 3.0663 6.12604 3.16729 6.45303C2.7533 6.22003 2.4473 5.81302 2.3493 5.33102ZM4.29129 4.66403H3.6483C3.6913 3.94104 3.8633 3.49802 3.97029 3.36203C4.07629 3.49802 4.24929 3.94104 4.29129 4.66403ZM4.29129 5.33102C4.24929 6.05304 4.07629 6.49603 3.97029 6.63303C3.8633 6.49603 3.6913 6.05304 3.6493 5.33102H4.29129ZM4.7723 6.45303C4.87329 6.12604 4.9333 5.73404 4.9543 5.33102H5.59029C5.49329 5.81302 5.18729 6.22003 4.7723 6.45303ZM5.59029 4.66403H4.9543C4.9333 4.26004 4.87329 3.86902 4.7723 3.54202C5.18729 3.77402 5.49329 4.18204 5.59029 4.66403ZM3.16729 3.54202C3.0663 3.86902 3.00729 4.26004 2.98629 4.66403H2.3493C2.4473 4.18204 2.7533 3.77402 3.16729 3.54202Z" fill="white"/>
<path d="M9.262 0H1.324V1.33301H0V11.327H7.939V9.99399H9.262V0ZM7.277 10.661H0.662003V1.99899H7.277V10.661ZM8.601 9.328H7.939V1.33301H1.985V0.666992H8.601V9.328Z" fill="white"/>
</svg>
