<svg width="75" height="76" viewBox="0 0 75 76" fill="none" xmlns="http://www.w3.org/2000/svg">
<path d="M56.2453 5.86929V33.9966C54.9351 33.9966 53.9067 35.0576 53.9061 36.3358L53.9017 46.8895H7.03354C4.41162 46.8895 2.34375 49.0027 2.34375 51.5793V63.2912C2.34375 65.8678 4.42035 67.9809 7.03354 67.9809H8.20084V71.492C8.19836 72.1428 8.72653 72.6709 9.3773 72.6685H17.5782C18.2253 72.6659 18.7525 72.1392 18.75 71.492V67.9809H56.2454V71.492C56.243 72.1437 56.7725 72.6722 57.4242 72.6685H65.6227C66.2744 72.6722 66.8039 72.1437 66.8015 71.492V67.9809H67.9688C70.5907 67.9809 72.6563 65.8678 72.6563 63.2912V51.5793C72.6563 49.0027 70.5911 46.8895 67.9688 46.8895H65.6227V36.3358C65.6227 35.0576 64.5869 33.9966 63.2813 33.9966L63.2789 5.86929C63.2788 3.94191 61.7228 2.35596 59.7679 2.35596C57.8129 2.35596 56.2453 3.94191 56.2453 5.86929ZM59.7678 4.702C60.4052 4.702 60.9351 5.19981 60.9351 5.86929L60.9374 33.9966H58.5936L58.5913 5.86929C58.5913 5.19981 59.1303 4.702 59.7678 4.702ZM26.4357 15.6082C18.4024 15.6082 10.7029 18.8463 5.02612 24.5895C3.88332 25.657 5.64075 27.3962 6.69466 26.2329C11.9351 20.9311 19.0304 17.9543 26.4357 17.9543C33.8418 17.9543 40.9454 20.9302 46.1859 26.2329C47.2469 27.4039 48.9882 25.6485 47.8545 24.5895C42.1777 18.8454 34.4698 15.6082 26.4357 15.6082ZM26.4357 22.9805C20.3316 22.9805 14.4859 25.4332 10.1737 29.7966C8.96216 30.8271 10.8464 32.6231 11.8331 31.44C15.709 27.5181 20.9597 25.3151 26.4357 25.3151C31.9112 25.3151 37.1626 27.5188 41.0384 31.44C42.1132 32.5742 43.821 30.8858 42.7092 29.7966C38.3972 25.4341 32.5392 22.9805 26.4357 22.9805ZM26.4357 30.3413C22.2621 30.3413 18.2687 32.0126 15.3212 34.9945C14.1834 36.0443 15.9157 37.811 16.9806 36.647C19.4918 34.1065 22.8901 32.6851 26.4357 32.6851C29.9818 32.6851 33.3888 34.106 35.9 36.647C36.9876 37.7939 38.6886 36.0775 37.5686 34.9945C34.621 32.012 30.6098 30.3413 26.4357 30.3413ZM56.2499 36.3403H63.2788V46.8895H56.2453L56.2499 36.3403ZM26.4357 37.7022C24.1912 37.7022 22.0425 38.6016 20.4596 40.2039C19.3091 41.3162 21.027 43.0176 22.1282 41.8564C23.2748 40.6958 24.8193 40.0482 26.4357 40.0482C28.0512 40.0482 29.606 40.6969 30.7524 41.8564C31.8538 43.0094 33.561 41.3115 32.4141 40.2039C30.8314 38.6032 28.679 37.7022 26.4357 37.7022ZM7.03341 49.2355H67.9686C69.2873 49.2355 70.3124 50.2789 70.3124 51.5793V63.2912C70.3124 64.6099 69.255 65.6349 67.9686 65.6349H7.03341C5.73301 65.6349 4.68968 64.6099 4.68968 63.2912V51.5793C4.68968 50.2789 5.71472 49.2355 7.03341 49.2355ZM12.8859 51.5793C10.9307 51.5793 9.37487 53.1626 9.37487 55.0903C9.37487 57.0181 10.9323 58.6037 12.8859 58.6037C14.8396 58.6037 16.4084 57.0181 16.4084 55.0903C16.4084 53.1626 14.8411 51.5793 12.8859 51.5793ZM22.2724 51.5793C20.2993 51.5793 18.7499 53.1626 18.7499 55.0903C18.7499 57.0181 20.3217 58.6037 22.2724 58.6037C24.223 58.6037 25.7834 57.0181 25.7834 55.0903C25.7834 53.1626 24.2454 51.5793 22.2724 51.5793ZM31.6451 51.5793C29.685 51.5793 28.1226 53.1626 28.1226 55.0903C28.1226 57.0181 29.6944 58.6037 31.6451 58.6037C33.5957 58.6037 35.1561 57.0181 35.1561 55.0903C35.1561 53.1626 33.6052 51.5793 31.6451 51.5793ZM12.8859 53.9139C13.5104 53.9139 14.0647 54.4292 14.0647 55.0903C14.0647 55.7514 13.5196 56.2576 12.8859 56.2576C12.2523 56.2576 11.7186 55.7514 11.7186 55.0903C11.7186 54.4292 12.2615 53.9139 12.8859 53.9139ZM22.2724 53.9139C22.9011 53.9139 23.4397 54.4292 23.4397 55.0903C23.4397 55.7514 22.906 56.2576 22.2724 56.2576C21.6387 56.2576 21.0936 55.7514 21.0936 55.0903C21.0936 54.4292 21.6437 53.9139 22.2724 53.9139ZM31.6451 53.9139C32.2609 53.9139 32.8124 54.4292 32.8124 55.0903C32.8124 55.7514 32.2833 56.2576 31.6451 56.2576C31.0069 56.2576 30.4664 55.7514 30.4664 55.0903C30.4664 54.4292 31.0293 53.9139 31.6451 53.9139ZM38.6672 53.9139C37.1386 53.9139 37.1386 56.2576 38.6672 56.2576H49.2232C50.7518 56.2576 50.7518 53.9139 49.2232 53.9139H38.6672ZM54.4898 53.9139C52.9612 53.9139 52.9612 56.2576 54.4898 56.2576H57.4241C58.9526 56.2576 58.9526 53.9139 57.4241 53.9139H54.4898ZM10.5445 67.9809H16.4061V70.3247H10.5445V67.9809ZM58.5936 67.9809H64.453V70.3247H58.5936V67.9809Z" fill="#3FD0D4"/>
</svg>
