<svg width="328" height="320" viewBox="0 0 328 320" fill="none" xmlns="http://www.w3.org/2000/svg">
<g clip-path="url(#clip0_431_9)">
<path d="M173.323 159.429L161.717 150.868C160.956 150.297 159.814 151.058 159.814 152.2V169.322C159.814 170.464 160.766 171.415 161.717 170.654L173.323 162.093C174.084 161.522 174.274 160.38 173.323 159.429C173.513 159.619 173.513 159.619 173.323 159.429Z" fill="white"/>
<path d="M69.0625 246.374L84.8537 228.871L96.6495 239.525L94.747 241.617L85.2342 233.056L80.2876 238.383L88.4685 245.803L86.566 247.896L78.385 240.476L71.1553 248.466L69.0625 246.374Z" fill="white"/>
<path d="M86.9464 250.749C88.6587 248.086 90.7515 246.754 93.0345 246.374C94.9371 246.183 96.8396 246.564 98.5519 247.705C100.454 249.037 101.596 250.749 101.977 252.842C102.357 254.935 101.786 257.028 100.264 259.311C99.1227 261.213 97.7909 262.355 96.6494 263.116C95.3176 263.877 93.9858 264.067 92.654 263.877C91.132 263.686 89.8002 263.306 88.6587 262.545C86.7561 261.213 85.4243 259.501 85.0438 257.408C84.6633 255.315 85.2341 253.032 86.9464 250.749ZM89.4197 252.271C88.2782 254.174 87.7074 255.696 87.8977 257.218C88.0879 258.74 88.8489 259.691 89.9905 260.642C91.132 261.403 92.4638 261.594 93.7956 261.213C95.1274 260.833 96.4591 259.691 97.7909 257.789C98.9325 256.076 99.5032 254.364 99.313 253.032C99.1227 251.51 98.3617 250.559 97.2202 249.608C96.0786 248.847 94.7468 248.657 93.4151 249.037C91.893 249.418 90.5612 250.559 89.4197 252.271Z" fill="white"/>
<path d="M101.406 269.774L109.016 254.554L111.299 255.696L110.158 257.979C111.299 257.218 112.25 256.647 112.821 256.647C113.582 256.457 114.153 256.647 114.724 257.027C115.675 257.408 116.436 258.169 117.007 259.12L114.914 261.023C114.533 260.262 113.963 259.881 113.202 259.501C112.631 259.31 112.06 259.12 111.489 259.31C110.919 259.501 110.348 259.691 109.777 260.262C109.016 261.023 108.445 261.974 107.874 263.115L103.879 271.106L101.406 269.774Z" fill="white"/>
<path d="M126.71 274.34L129.374 275.672C128.422 277.194 127.091 278.145 125.568 278.716C124.046 279.287 122.334 279.097 120.432 278.526C118.149 277.765 116.436 276.433 115.485 274.34C114.534 272.438 114.534 270.155 115.485 267.491C116.436 264.828 117.768 262.925 119.671 261.974C121.573 261.023 123.666 260.833 125.949 261.594C128.042 262.355 129.564 263.686 130.515 265.589C131.466 267.491 131.276 269.774 130.515 272.438C130.515 272.628 130.325 272.818 130.325 273.199L118.339 269.013C117.768 270.726 117.768 272.438 118.529 273.579C119.1 274.911 120.051 275.672 121.383 276.243C122.334 276.623 123.285 276.623 124.237 276.433C125.188 276.053 125.949 275.292 126.71 274.34ZM119.29 266.73L128.232 269.774C128.613 268.443 128.613 267.301 128.232 266.35C127.661 265.018 126.71 264.067 125.378 263.686C124.046 263.306 122.905 263.306 121.763 263.877C120.812 264.447 119.861 265.399 119.29 266.73Z" fill="white"/>
<path d="M133.178 276.623L136.032 276.813C136.032 277.955 136.223 278.906 136.793 279.667C137.364 280.428 138.315 280.999 139.647 281.189C140.979 281.379 141.93 281.379 142.691 280.999C143.452 280.618 143.833 280.048 144.023 279.287C144.213 278.716 144.023 278.145 143.452 277.574C143.072 277.194 142.12 276.813 140.789 276.052C138.886 275.101 137.554 274.34 136.793 273.769C136.032 273.199 135.652 272.628 135.271 271.867C135.081 271.106 134.891 270.345 135.081 269.584C135.271 268.823 135.462 268.252 136.032 267.681C136.413 267.111 136.984 266.73 137.745 266.35C138.315 266.159 138.886 265.969 139.647 265.969C140.408 265.969 141.359 265.969 142.12 266.159C143.452 266.35 144.594 266.92 145.545 267.491C146.496 268.062 147.067 268.633 147.448 269.394C147.828 270.155 148.018 271.106 147.828 272.247L144.974 272.057C144.974 271.106 144.784 270.345 144.213 269.774C143.643 269.203 142.881 268.823 141.74 268.633C140.408 268.442 139.457 268.442 138.886 268.633C138.315 269.013 137.935 269.394 137.745 269.964C137.745 270.345 137.745 270.725 137.935 271.106C138.125 271.486 138.506 271.867 138.886 272.057C139.076 272.247 140.028 272.628 141.169 273.199C143.072 274.15 144.404 274.911 145.165 275.291C145.926 275.862 146.496 276.433 146.687 277.194C147.067 277.955 147.067 278.716 146.877 279.667C146.687 280.618 146.306 281.379 145.545 282.14C144.784 282.901 143.833 283.282 142.691 283.662C141.55 283.853 140.408 283.853 139.076 283.662C136.984 283.282 135.271 282.521 134.32 281.379C133.559 279.857 132.988 278.335 133.178 276.623Z" fill="white"/>
<path d="M155.629 282.521L155.819 285.185C155.058 285.375 154.297 285.375 153.536 285.185C152.585 285.185 151.633 284.804 151.063 284.424C150.492 284.043 150.111 283.663 149.921 283.092C149.731 282.521 149.731 281.38 149.921 279.667L150.682 269.965L148.589 269.774L148.78 267.491L150.872 267.682L151.253 263.496L154.297 261.974L153.726 267.872L156.58 268.062L156.39 270.345L153.536 270.155L152.585 280.048C152.585 280.809 152.585 281.38 152.585 281.57C152.585 281.76 152.775 281.95 152.965 282.141C153.155 282.331 153.536 282.331 153.917 282.521C154.678 282.521 155.058 282.521 155.629 282.521Z" fill="white"/>
<path d="M178.079 285.184L167.995 263.115L171.229 262.545L177.318 277.194C177.888 278.716 178.649 280.238 179.03 281.76C179.22 279.096 179.22 277.765 179.41 277.384L181.123 261.023L184.738 260.452L190.065 271.677C191.397 274.53 192.538 277.004 193.299 279.667C193.299 278.145 193.489 276.433 193.68 274.34L194.821 258.74L197.865 258.169L195.392 282.521L192.348 283.092L184.357 266.35C183.786 265.018 183.216 264.067 183.216 263.686C183.216 264.828 183.025 265.779 183.025 266.54L181.123 284.994L178.079 285.184Z" fill="white"/>
<path d="M206.046 270.535C204.905 267.682 204.714 265.208 205.856 263.116C206.807 261.403 208.139 260.072 210.041 259.311C212.134 258.359 214.227 258.359 216.32 259.311C218.222 260.072 219.744 261.784 220.886 264.257C221.647 266.35 222.027 268.062 222.027 269.394C221.837 270.726 221.457 272.057 220.505 273.199C219.554 274.34 218.413 275.101 217.081 275.672C214.798 276.623 212.895 276.623 210.802 275.672C208.519 274.911 206.997 273.199 206.046 270.535ZM208.71 269.394C209.471 271.487 210.612 272.818 211.944 273.389C213.276 273.96 214.608 274.15 215.939 273.579C217.271 273.009 218.222 272.057 218.603 270.726C218.983 269.394 218.793 267.682 218.032 265.589C217.271 263.686 216.13 262.355 214.798 261.784C213.466 261.213 212.134 261.023 210.802 261.594C209.471 262.164 208.519 263.116 208.139 264.447C207.758 265.589 207.949 267.301 208.71 269.394Z" fill="white"/>
<path d="M229.828 269.203L221.267 254.364L223.55 253.032L224.881 255.315C224.881 253.983 225.072 253.032 225.262 252.271C225.642 251.7 226.023 251.13 226.594 250.939C227.355 250.369 228.496 250.178 229.638 250.178L230.209 253.032C229.448 253.032 228.687 253.222 228.116 253.603C227.545 253.983 227.165 254.364 226.974 254.935C226.784 255.505 226.594 256.076 226.784 256.837C226.974 257.979 227.355 258.93 228.116 260.071L232.492 267.872L229.828 269.203Z" fill="white"/>
<path d="M241.243 262.164L227.735 242.949L230.018 241.237L243.527 260.452L241.243 262.164Z" fill="white"/>
<path d="M258.366 248.657L256.844 247.135C257.225 249.037 256.464 250.749 254.942 252.271C253.99 253.223 252.659 253.793 251.327 253.984C249.995 254.174 248.663 253.984 247.332 253.413C246 252.842 244.668 251.891 243.526 250.559C242.385 249.227 241.624 247.896 241.053 246.564C240.482 245.232 240.482 243.71 240.863 242.569C241.243 241.237 242.004 240.095 242.956 239.144C243.717 238.383 244.478 238.003 245.429 237.812C246.38 237.622 247.141 237.622 248.093 237.812L242.575 231.534L244.668 229.632L260.269 247.135L258.366 248.657ZM246 248.276C247.522 249.988 248.854 250.749 250.376 250.94C251.707 251.13 253.039 250.749 253.8 249.988C254.751 249.227 255.132 248.086 255.132 246.754C255.132 245.422 254.371 243.9 253.039 242.378C251.517 240.666 249.995 239.715 248.663 239.525C247.332 239.334 246 239.715 245.048 240.476C244.097 241.237 243.717 242.378 243.717 243.71C243.717 245.042 244.478 246.564 246 248.276Z" fill="white"/>
<path d="M61.262 145.922L38.6216 129.75L39.5729 126.136L67.3501 122.331L66.3989 126.136L58.0276 127.087L55.364 137.551L62.2132 142.307L61.262 145.922ZM52.8907 136.029L55.1738 127.467L47.5636 128.228C45.2805 128.419 43.378 128.609 41.8559 128.609C43.378 129.37 44.9 130.131 46.2318 131.272L52.8907 136.029Z" fill="white"/>
<path d="M73.4385 110.916L71.3457 109.774C72.4872 111.677 72.4872 113.579 71.5359 115.672C70.7749 117.004 69.8237 118.145 68.4919 118.716C67.1601 119.287 65.638 119.858 64.116 119.858C62.4037 119.858 60.8817 119.287 59.1694 118.526C57.4571 117.765 56.1253 116.623 54.9837 115.482C53.8422 114.15 53.2714 112.818 53.0812 111.487C52.8909 109.965 53.0812 108.633 53.8422 107.111C54.413 106.16 54.9837 105.399 55.7448 104.638C56.5058 104.067 57.4571 103.686 58.4083 103.496L50.0371 99.3105L51.3689 96.4568L74.58 108.062L73.4385 110.916ZM60.5011 115.672C62.594 116.814 64.4965 117.194 66.0186 116.814C67.5406 116.433 68.6821 115.672 69.2529 114.34C69.8237 113.009 69.8237 111.867 69.2529 110.345C68.6821 109.013 67.3503 107.682 65.2575 106.73C62.9745 105.589 61.0719 105.208 59.5499 105.589C58.0278 105.969 56.8863 106.73 56.3155 108.062C55.7448 109.394 55.7448 110.726 56.3155 112.057C56.8863 113.389 58.4083 114.531 60.5011 115.672Z" fill="white"/>
<path d="M80.8584 99.3105L61.6426 93.603L63.7354 90.9395L75.1507 94.5543C76.2922 94.9348 77.624 95.3153 78.9558 95.886C78.385 95.125 77.624 93.9835 76.863 92.842L70.2041 82.5685L72.1066 79.905L82.7609 96.8373L80.8584 99.3105Z" fill="white"/>
<path d="M93.7958 76.6708L96.4593 74.7683C97.4106 76.4806 97.6009 78.1928 97.4106 80.0953C97.0301 81.8076 96.0788 83.3296 94.5568 84.8516C92.464 86.7541 90.3712 87.5151 88.0881 87.3248C85.805 87.1346 83.522 85.9931 81.4292 83.7101C79.3364 81.4271 78.1948 78.9538 78.1948 76.6708C78.1948 74.1976 79.1461 72.2951 81.0487 70.3926C82.9512 68.6803 85.044 67.9193 87.3271 68.1096C89.6101 68.2998 91.8932 69.4413 93.986 71.7243C94.1763 71.9146 94.3665 72.1048 94.5568 72.2951L84.283 81.8076C85.805 83.3296 87.3271 84.0906 88.8491 84.0906C90.3712 84.2808 91.7029 83.7101 92.8445 82.5686C93.7958 81.8076 94.1763 80.8563 94.3665 79.9051C94.5568 79.1441 94.3665 78.0026 93.7958 76.6708ZM82.761 79.9051L90.3712 72.8658C89.2296 71.7243 88.0881 71.1536 87.1368 71.1536C85.6148 70.9633 84.0927 71.3438 82.9512 72.4853C81.8097 73.4366 81.2389 74.5781 81.2389 76.1001C81.2389 77.6221 81.6194 78.7636 82.761 79.9051Z" fill="white"/>
<path d="M102.548 77.2415L92.6543 61.2605L95.1276 59.7385L96.4594 62.0215C96.4594 59.5483 97.7912 57.6458 99.884 56.3141C100.835 55.7433 101.787 55.3628 102.928 55.1726C103.879 54.9823 104.831 55.1726 105.592 55.3628C106.353 55.7433 107.114 56.1238 107.684 56.8848C108.065 57.2653 108.636 58.2166 109.397 59.358L115.485 69.251L112.821 70.9633L106.733 61.2605C105.972 60.119 105.401 59.358 104.831 58.9775C104.26 58.597 103.689 58.4068 102.928 58.4068C102.167 58.4068 101.406 58.597 100.835 59.1678C99.6937 59.9288 98.9327 60.88 98.5522 62.0215C98.1717 63.3533 98.5522 64.8753 99.884 66.968L105.211 75.7195L102.548 77.2415Z" fill="white"/>
<path d="M125.568 61.8313L127.09 64.3045C126.329 64.8752 125.568 65.2558 124.998 65.446C123.856 65.8265 123.095 66.0167 122.334 66.0167C121.573 66.0167 121.002 65.6362 120.622 65.2557C120.241 64.8752 119.48 63.7337 118.909 62.0215L114.724 52.1285L112.631 53.0798L111.68 50.7968L113.772 49.8455L112.06 45.4698L114.343 42.4258L116.817 48.5138L119.861 47.3723L120.812 49.6553L117.768 50.7968L121.953 60.88C122.334 61.641 122.524 62.2118 122.714 62.402C122.905 62.5923 123.095 62.7825 123.476 62.7825C123.856 62.7825 124.046 62.7825 124.617 62.5923C124.617 62.402 124.998 62.2118 125.568 61.8313Z" fill="white"/>
<path d="M144.023 59.5483L143.452 56.8848C142.501 59.3581 140.789 60.6898 138.315 61.2606C137.174 61.4508 136.222 61.4508 135.081 61.2606C134.13 61.0703 133.178 60.6898 132.608 60.1191C132.037 59.5483 131.466 58.9776 131.086 58.0263C130.895 57.4556 130.515 56.5043 130.134 55.1726L127.471 43.9479L130.515 43.1869L132.798 53.2701C133.178 54.9824 133.559 55.9336 133.749 56.5044C134.13 57.2654 134.7 57.8361 135.461 58.2166C136.222 58.5971 136.983 58.5971 137.935 58.4068C138.886 58.2166 139.647 57.8361 140.408 57.0751C141.169 56.5043 141.55 55.5531 141.74 54.7921C141.93 53.8409 141.74 52.6994 141.359 51.1774L139.076 41.4746L142.12 40.7136L146.306 58.9776L144.023 59.5483Z" fill="white"/>
<path d="M151.823 58.4068L150.492 39.7623L153.346 39.572L153.536 42.4258C154.107 41.094 154.868 40.1428 155.438 39.572C156.009 39.1915 156.77 38.811 157.341 38.811C158.482 38.811 159.434 39.0013 160.765 39.572L159.814 42.616C159.053 42.2355 158.292 42.0453 157.531 42.0453C156.77 42.0453 156.199 42.4258 155.629 42.8063C155.058 43.1868 154.677 43.9478 154.487 44.7088C154.297 45.8503 154.107 47.182 154.297 48.5138L155.058 58.2165L151.823 58.4068Z" fill="white"/>
<path d="M177.508 52.5091L180.742 53.2701C179.981 55.1725 179.03 56.5043 177.508 57.4555C175.986 58.4068 174.274 58.7873 171.991 58.597C169.327 58.4068 167.234 57.2653 165.712 55.553C164.19 53.6506 163.619 51.3676 163.81 48.3236C164 45.0893 165.142 42.8063 166.854 41.2843C168.566 39.7623 170.849 39.0013 173.322 39.1916C175.796 39.3818 177.698 40.3331 179.22 42.2356C180.742 44.1381 181.313 46.6113 180.933 49.6553C180.933 49.8456 180.933 50.0358 180.933 50.4163L167.044 49.2748C167.044 51.3676 167.425 52.8896 168.376 54.2213C169.327 55.3628 170.659 56.1238 172.181 56.1238C173.322 56.314 174.274 55.9335 175.225 55.3628C176.176 54.792 176.937 53.8408 177.508 52.5091ZM167.615 46.6113L178.079 47.5626C178.079 46.0406 177.698 44.7088 177.128 43.9478C176.176 42.6161 175.035 41.8551 173.322 41.8551C171.8 41.6648 170.659 42.0453 169.517 42.9966C168.566 43.7576 167.805 44.8991 167.615 46.6113Z" fill="white"/>
<path d="M183.406 53.8408L186.64 54.2213C186.45 55.553 186.64 56.5043 187.401 57.4555C187.972 58.2165 189.114 58.9775 190.445 59.358C191.777 59.7385 192.919 59.7385 193.87 59.358C194.631 58.9775 195.202 58.4068 195.392 57.6458C195.582 56.8848 195.392 56.314 194.821 55.7433C194.441 55.3628 193.489 54.792 191.967 53.8408C189.875 52.6993 188.353 51.748 187.592 51.1773C186.831 50.6065 186.26 49.8455 186.07 48.8943C185.879 48.1333 185.879 47.182 186.07 46.2308C186.26 45.4698 186.64 44.7088 187.211 44.138C187.782 43.5673 188.353 43.1868 189.114 42.8063C189.684 42.616 190.445 42.4258 191.206 42.4258C192.158 42.4258 192.919 42.4258 193.87 42.8063C195.202 43.1868 196.534 43.7575 197.485 44.3283C198.436 45.0893 199.197 45.8503 199.387 46.6113C199.768 47.3723 199.768 48.5138 199.768 49.6553L196.724 49.2748C196.914 48.3235 196.534 47.5625 196.153 46.8015C195.582 46.0405 194.821 45.66 193.489 45.2795C192.158 44.899 191.016 44.899 190.255 45.2795C189.494 45.66 189.114 46.0405 188.923 46.6113C188.733 46.9918 188.923 47.3723 189.114 47.7528C189.304 48.1333 189.684 48.5138 190.065 48.8943C190.255 49.0845 191.206 49.6553 192.538 50.4163C194.631 51.5578 195.963 52.509 196.724 53.0798C197.485 53.6505 198.056 54.4115 198.246 55.1725C198.436 55.9335 198.626 56.8848 198.246 58.0263C198.056 58.9775 197.485 59.9288 196.534 60.6898C195.773 61.4508 194.631 61.8313 193.489 62.2118C192.158 62.402 190.826 62.402 189.494 62.0215C187.211 61.4508 185.499 60.4995 184.547 59.1678C183.596 57.836 183.216 55.9335 183.406 53.8408Z" fill="white"/>
<path d="M213.085 67.5387L212.134 70.2022C211.183 70.012 210.422 69.6315 209.851 69.4412C208.9 68.8705 208.139 68.2997 207.758 67.729C207.378 67.1582 207.188 66.3972 207.188 65.8265C207.188 65.2557 207.758 63.924 208.519 62.402L213.466 52.6993L211.373 51.5578L212.515 49.2748L214.607 50.4163L216.7 46.2308L220.315 46.0405L217.271 51.9383L220.125 53.4603L218.983 55.7433L216.129 54.2213L211.183 63.924C210.802 64.685 210.612 65.2557 210.612 65.6362C210.612 65.8265 210.612 66.207 210.802 66.3972C210.993 66.5875 211.183 66.968 211.754 67.1582C212.134 67.1582 212.515 67.3485 213.085 67.5387Z" fill="white"/>
<path d="M217.081 73.056L227.545 57.6458L229.828 59.1678L228.306 61.4507C229.638 60.6897 230.779 60.4995 231.54 60.4995C232.301 60.4995 233.063 60.6897 233.633 61.0702C234.585 61.641 235.155 62.5922 235.726 63.7337L233.253 65.6362C232.872 64.8752 232.301 64.1142 231.731 63.7337C231.16 63.3532 230.589 63.163 229.828 63.163C229.067 63.163 228.496 63.5435 227.926 63.924C226.974 64.685 226.213 65.6362 225.452 66.7777L219.935 74.9585L217.081 73.056Z" fill="white"/>
<path d="M237.819 86.754C236.297 86.754 234.965 86.3735 233.823 85.993C232.682 85.6125 231.731 84.8515 230.779 84.0905C229.257 82.7588 228.496 81.2368 228.306 79.7148C228.116 78.1928 228.686 76.861 229.638 75.7195C230.209 74.9585 230.97 74.578 231.731 74.3878C232.492 74.1975 233.443 74.0073 234.204 74.1975C234.965 74.3878 235.726 74.578 236.677 74.9585C237.248 75.339 238.009 75.7195 239.151 76.4805C241.243 78.0025 242.956 78.9538 244.097 79.5245C244.478 79.144 244.668 78.9538 244.668 78.9538C245.619 78.0025 246 77.0513 245.809 76.2903C245.619 75.1488 245.048 74.1975 243.907 73.056C242.765 72.1048 241.814 71.534 240.863 71.3438C239.912 71.1535 238.96 71.534 237.819 72.295L235.916 69.8218C237.058 69.0608 238.009 68.49 239.151 68.49C240.102 68.2998 241.243 68.49 242.575 69.0608C243.717 69.6315 245.048 70.3925 246.19 71.534C247.331 72.6755 248.283 73.6268 248.663 74.578C249.234 75.5293 249.424 76.2903 249.234 77.0513C249.234 77.8123 248.854 78.5733 248.473 79.3343C248.093 79.7148 247.522 80.4758 246.57 81.6173L243.717 84.6613C241.624 86.754 240.482 88.276 240.102 88.8468C239.721 89.6078 239.341 90.1785 239.151 91.1298L236.677 88.8468C236.867 88.0858 237.248 87.515 237.819 86.754ZM242.385 81.427C241.243 81.0465 239.721 80.0953 237.819 78.7635C236.677 78.0025 235.916 77.622 235.345 77.4318C234.775 77.2415 234.204 77.2415 233.633 77.4318C233.062 77.622 232.682 77.8123 232.301 78.1928C231.731 78.7635 231.54 79.5245 231.54 80.4758C231.54 81.2368 232.111 82.188 233.062 82.949C234.014 83.71 234.965 84.2808 235.916 84.6613C237.058 84.8515 238.009 84.8515 238.96 84.471C239.721 84.0905 240.482 83.5198 241.434 82.5685L242.385 81.427Z" fill="white"/>
<path d="M243.336 96.8373L253.8 79.7148L255.893 82.3783L249.425 92.4616C248.664 93.6031 247.903 94.5543 247.142 95.6958C248.093 95.3153 249.234 94.9348 250.756 94.5543L262.362 90.9396L264.264 93.6031L245.049 99.3106L243.336 96.8373Z" fill="white"/>
<path d="M261.791 115.291L262.933 118.335C261.03 118.716 259.318 118.526 257.605 117.765C256.083 117.004 254.752 115.672 253.8 113.769C252.469 111.296 252.278 109.013 253.039 106.73C253.8 104.447 255.513 102.735 258.176 101.403C261.03 99.8811 263.503 99.5006 265.786 100.262C268.07 100.832 269.782 102.354 270.923 104.637C272.065 106.92 272.255 109.013 271.494 111.296C270.733 113.579 269.021 115.291 266.167 116.623C265.977 116.623 265.786 116.813 265.406 117.004L258.937 104.637C257.225 105.779 256.083 106.92 255.513 108.442C254.942 109.964 255.132 111.296 255.893 112.628C256.464 113.579 257.225 114.34 257.986 114.911C259.318 115.291 260.459 115.482 261.791 115.291ZM261.601 103.686L266.357 113.008C267.689 112.247 268.64 111.296 269.021 110.345C269.592 108.823 269.592 107.491 268.831 105.969C268.07 104.637 267.118 103.876 265.786 103.306C264.455 102.925 263.123 102.925 261.601 103.686Z" fill="white"/>
<path d="M258.747 123.853L283.1 115.292L284.241 118.336L259.889 126.897L258.747 123.853Z" fill="white"/>
<path d="M266.928 130.321L268.07 133.365C266.928 133.746 265.977 134.507 265.596 135.458C265.025 136.409 265.025 137.551 265.406 138.882C265.786 140.214 266.167 141.356 266.928 141.926C267.689 142.497 268.45 142.687 269.211 142.497C269.972 142.307 270.353 141.926 270.733 141.165C270.923 140.595 271.114 139.453 271.114 137.741C271.114 135.268 271.304 133.746 271.494 132.604C271.684 131.653 272.065 130.892 272.826 130.131C273.397 129.56 274.158 129.18 275.109 128.989C275.87 128.799 276.631 128.799 277.582 128.989C278.534 129.18 279.104 129.56 279.675 130.131C280.056 130.511 280.626 131.082 281.007 131.843C281.387 132.604 281.768 133.555 281.958 134.507C282.339 136.029 282.339 137.17 282.148 138.502C281.958 139.643 281.578 140.595 281.007 141.356C280.436 142.117 279.485 142.497 278.343 143.068L277.202 140.214C278.153 139.834 278.724 139.263 279.104 138.502C279.485 137.741 279.485 136.79 279.295 135.458C278.914 134.126 278.534 132.985 277.963 132.604C277.392 132.033 276.821 131.843 276.06 132.033C275.68 132.033 275.299 132.414 275.109 132.604C274.919 132.985 274.728 133.365 274.538 133.936C274.538 134.316 274.348 135.268 274.348 136.79C274.158 139.073 274.158 140.785 273.967 141.736C273.777 142.687 273.397 143.448 272.826 144.209C272.255 144.97 271.304 145.351 270.353 145.541C269.401 145.731 268.26 145.731 267.308 145.351C266.357 144.97 265.406 144.209 264.645 143.258C263.884 142.307 263.313 140.975 263.123 139.643C262.552 137.17 262.742 135.268 263.503 133.936C263.884 132.224 265.025 131.082 266.928 130.321Z" fill="white"/>
<path d="M319.248 184.923C305.55 271.106 224.501 329.893 138.316 316.195C70.7751 305.351 17.8841 252.461 7.03955 184.923C16.9328 180.547 23.4015 170.844 23.4015 160C23.4015 149.156 16.9328 139.453 7.03955 135.077C20.7379 48.8942 101.787 -9.89298 187.972 3.805C255.513 14.6492 308.404 67.5386 319.248 135.077C305.55 140.975 299.272 156.956 305.169 170.654C307.833 177.122 312.97 182.069 319.248 184.923Z" stroke="white" stroke-width="2" stroke-linecap="round" stroke-linejoin="round"/>
<path d="M235.726 185.874C221.457 226.017 177.318 246.944 137.174 232.675C115.295 224.875 98.1716 207.562 90.3711 185.684" stroke="white" stroke-width="2" stroke-linecap="round" stroke-linejoin="round"/>
<path d="M90.1812 134.697C104.26 94.3637 148.209 73.246 188.353 87.1342C210.613 94.9345 228.116 112.437 235.917 134.697" stroke="white" stroke-width="2" stroke-linecap="round" stroke-linejoin="round"/>
<path d="M328 160C328 163.805 324.765 167.039 320.96 167.039C317.155 167.039 313.921 163.805 313.921 160C313.921 156.195 317.155 152.961 320.96 152.961C324.956 152.961 328 156.005 328 160Z" fill="white"/>
<path d="M14.0789 160C14.0789 163.805 10.8445 167.039 7.03944 167.039C3.23434 167.039 0 163.805 0 160C0 156.195 3.23434 152.961 7.03944 152.961C10.8445 152.961 14.0789 156.005 14.0789 160Z" fill="white"/>
</g>
<defs>
<clipPath id="clip0_431_9">
<rect width="328" height="320" fill="white"/>
</clipPath>
</defs>
</svg>
