<svg width="190" height="59" viewBox="0 0 190 59" fill="none" xmlns="http://www.w3.org/2000/svg">
<path d="M15.5663 32.0442C15.5663 28.8553 13.1787 26.614 10.2457 26.614C7.31282 26.614 4.92515 28.8931 4.92515 32.0442C4.92515 35.1576 7.31282 37.4746 10.2457 37.4746C13.1816 37.4716 15.5663 35.2332 15.5663 32.0442ZM15.6082 41.5357V39.0676C14.1613 40.7769 12.0073 41.838 9.42787 41.838C4.06833 41.838 0 37.6606 0 32.0442C0 26.4628 4.22411 22.2129 9.54771 22.2129C12.0523 22.2129 14.1643 23.2767 15.6112 24.9454V22.553H20.4226V41.5357H15.6082Z" fill="#5A6A83"/>
<path d="M43.7929 37.3205C42.1093 37.3205 41.6419 36.7129 41.6419 35.12V26.6924H44.7335V22.553H41.6419V17.922H36.7107V22.553H30.3595V21.3989C30.3595 19.8029 30.9858 19.1954 32.7084 19.1954H33.7899V15.5122H31.4171C27.3487 15.5122 25.4314 16.8029 25.4314 20.7506V22.5501H22.6934V26.6897H25.4314V41.5327H30.3626V26.6897H36.7138V35.9919C36.7138 39.8641 38.2386 41.5358 42.2292 41.5358H44.7726V37.3205H43.7929Z" fill="#5A6A83"/>
<path d="M61.4773 30.3351C61.1267 27.867 59.0507 26.3874 56.627 26.3874C54.2003 26.3874 52.2052 27.8293 51.6989 30.3351H61.4773ZM51.6569 33.2973C52.0105 36.1055 54.0836 37.7014 56.7049 37.7014C58.778 37.7014 60.3838 36.7508 61.3214 35.2332H66.3695C65.1951 39.2566 61.4773 41.838 56.5881 41.838C50.6803 41.838 46.5342 37.8147 46.5342 32.0822C46.5342 26.3495 50.917 22.21 56.7078 22.21C62.5379 22.21 66.7619 26.3874 66.7619 32.0822C66.7619 32.5009 66.7229 32.9165 66.645 33.2973H51.6569Z" fill="#5A6A83"/>
<path d="M98.1134 32.0442C98.1134 28.9686 95.7256 26.614 92.7927 26.614C89.8598 26.614 87.472 28.8931 87.472 32.0442C87.472 35.1576 89.8598 37.4746 92.7927 37.4746C95.7256 37.4716 98.1134 35.1199 98.1134 32.0442ZM82.6189 22.553H87.43V25.0209C88.8772 23.2738 91.0281 22.2129 93.6106 22.2129C98.8922 22.2129 103.039 26.428 103.039 32.0065C103.039 37.5879 98.8143 41.8408 93.4938 41.8408C91.0281 41.8408 88.9941 40.8902 87.586 39.2973V49.3468H82.6189V22.553Z" fill="#5A6A83"/>
<path d="M120.381 32.0442C120.381 28.8553 117.996 26.614 115.06 26.614C112.128 26.614 109.74 28.8931 109.74 32.0442C109.74 35.1576 112.128 37.4746 115.06 37.4746C117.996 37.4716 120.381 35.2332 120.381 32.0442ZM120.423 41.5357V39.0676C118.977 40.7769 116.822 41.838 114.242 41.838C108.883 41.838 104.815 37.6606 104.815 32.0442C104.815 26.4628 109.039 22.2129 114.36 22.2129C116.864 22.2129 118.977 23.2767 120.423 24.9454V22.553H125.235V41.5357H120.423Z" fill="#5A6A83"/>
<path d="M73.9458 24.4134C73.9458 24.4134 75.1712 22.2129 78.1699 22.2129C79.4522 22.2129 80.282 22.6402 80.282 22.6402V27.4831C80.282 27.4831 78.4725 26.3989 76.8098 26.6169C75.1472 26.8349 74.0956 28.3174 74.1016 30.3002V41.5385H69.1345V22.5558H73.9458V24.4134Z" fill="#5A6A83"/>
<path d="M147.706 22.5532L135.558 49.286H130.435L135.205 38.9516L127.14 22.5532H132.946L137.665 33.5098L142.506 22.5532H147.706Z" fill="#5A6A83"/>
<path d="M186.485 22.1227L174.441 15.3785C170.906 13.3988 166.488 15.8726 166.488 19.835V20.5267C166.488 21.1518 166.832 21.7303 167.389 22.0412L169.663 23.3145C170.331 23.6895 171.164 23.2214 171.164 22.4744V20.7535C171.164 19.893 172.123 19.3553 172.89 19.7854L183.321 25.6286C184.089 26.0588 184.089 27.1344 183.321 27.5617L172.89 33.4048C172.123 33.835 171.164 33.2971 171.164 32.4366V31.521C171.164 27.5588 166.745 25.0821 163.207 27.0645L151.164 33.8088C147.629 35.7886 147.629 40.742 151.164 42.7217L163.207 49.466C166.742 51.4454 171.164 48.9716 171.164 45.0094V44.3177C171.164 43.6926 170.82 43.117 170.262 42.803L167.988 41.5269C167.32 41.1519 166.488 41.6198 166.488 42.3671V44.0879C166.488 44.9485 165.529 45.4862 164.761 45.0559L154.33 39.2129C153.564 38.7826 153.564 37.707 154.33 37.277L164.761 31.4338C165.529 31.0035 166.488 31.5414 166.488 32.4017V33.3175C166.488 37.2797 170.906 39.7566 174.441 37.7739L186.485 31.0298C190.021 29.0558 190.021 24.1024 186.485 22.1227Z" fill="#5A6A83"/>
</svg>
