<svg width="190" height="68" viewBox="0 0 190 68" fill="none" xmlns="http://www.w3.org/2000/svg">
<path d="M0 2.83398H41.0156V23.4768H20.5078L0 2.83398ZM0 23.4768H20.5078L41.0156 44.1194H0V23.4768ZM0 44.1194H20.5078V64.7622L0 44.1194Z" fill="#5A6A83"/>
<path d="M61.0156 19.1191H77.5948V24.4222H67.2908V31.7916H77.5948V36.9776H67.2908V46.4136H61.0156V19.1191ZM81.0036 27.619H86.9306V31.5574C87.2402 30.204 87.8736 29.1652 88.8288 28.438C89.8084 27.6834 90.8958 27.3074 92.0826 27.3074C92.7028 27.3074 93.2198 27.3604 93.6318 27.4632V33.0006C93.0406 32.9288 92.4458 32.89 91.85 32.8834C90.223 32.8834 88.9976 33.4152 88.1702 34.4814C87.3454 35.5212 86.9306 37.0806 86.9306 39.1612V46.4136H81.0064V27.619H81.0036ZM102.988 46.9206C101.181 46.9206 99.6048 46.491 98.2622 45.6334C96.9448 44.7758 95.8978 43.5584 95.241 42.1238C94.5438 40.6174 94.1928 38.9128 94.1928 37.0164C94.1928 35.1444 94.557 33.4538 95.2794 31.9474C95.9568 30.492 97.032 29.2614 98.3784 28.3992C99.7456 27.5416 101.309 27.112 103.066 27.112C104.382 27.112 105.559 27.399 106.591 27.9704C107.623 28.5436 108.398 29.3238 108.915 30.3098V27.619H114.803V46.4136H108.915V43.7616C108.398 44.6974 107.598 45.4634 106.513 46.0622C105.429 46.6412 104.216 46.9358 102.988 46.9206ZM104.693 41.968C106.113 41.968 107.21 41.5006 107.985 40.5646C108.76 39.6286 109.148 38.4452 109.148 37.0164C109.148 35.6128 108.76 34.4426 107.985 33.5068C107.21 32.5708 106.113 32.1034 104.693 32.1034C103.349 32.1034 102.266 32.5576 101.439 33.468C100.639 34.3784 100.238 35.56 100.238 37.0164C100.238 38.4726 100.639 39.6674 101.439 40.6034C102.266 41.5138 103.35 41.968 104.693 41.968ZM118.948 27.619H124.875V30.3486C125.29 29.3852 125.96 28.605 126.889 28.0092C127.846 27.4132 128.956 27.112 130.221 27.112C133.165 27.112 135.116 28.268 136.07 30.5828C136.595 29.5334 137.417 28.6656 138.433 28.0876C139.52 27.4292 140.768 27.092 142.035 27.112C146.452 27.112 148.66 29.6582 148.66 34.7544V46.4136H142.694V35.8462C142.694 34.574 142.461 33.638 141.997 33.0392C141.531 32.4424 140.834 32.142 139.905 32.142C138.898 32.142 138.123 32.4934 137.58 33.195C137.038 33.8714 136.767 35.0528 136.767 36.7434V46.4136H130.801V35.8074C130.801 34.5344 130.57 33.6106 130.104 33.0392C129.667 32.4424 128.981 32.142 128.053 32.142C127.019 32.142 126.231 32.4934 125.689 33.195C125.146 33.8714 124.875 35.0528 124.875 36.7434V46.4136H118.95L118.948 27.619ZM170.925 36.0416C170.925 36.8464 170.872 37.718 170.767 38.654H156.979C157.032 39.876 157.444 40.8102 158.219 41.4618C158.994 42.1106 160.042 42.4364 161.356 42.4364C163.191 42.4364 164.353 41.8764 164.843 40.7592H170.654C170.368 42.6056 169.362 44.0986 167.631 45.2434C165.927 46.3606 163.835 46.9206 161.356 46.9206C158.155 46.9206 155.637 46.049 153.802 44.3074C151.995 42.565 151.091 40.1358 151.091 37.0164C151.091 34.9886 151.503 33.2338 152.33 31.752C153.129 30.272 154.36 29.0744 155.855 28.3208C157.38 27.5162 159.148 27.112 161.165 27.112C163.074 27.112 164.765 27.4888 166.237 28.2434C167.735 28.998 168.885 30.05 169.684 31.4016C170.512 32.755 170.925 34.301 170.925 36.0416ZM165.073 34.9498C165.047 33.7022 164.699 32.7522 164.027 32.1034C163.357 31.4544 162.386 31.1286 161.122 31.1286C159.857 31.1286 158.85 31.479 158.1 32.1816C157.378 32.858 157.004 33.7796 156.976 34.9498H165.073ZM173.538 27.619H179.465V31.5574C179.774 30.204 180.408 29.1652 181.363 28.438C182.29 27.7032 183.437 27.3046 184.617 27.3074C185.236 27.3074 185.754 27.3604 186.166 27.4632V33.0006C185.575 32.9288 184.98 32.89 184.384 32.8834C182.757 32.8834 181.532 33.4152 180.704 34.4814C179.877 35.5212 179.465 37.0806 179.465 39.1612V46.4136H173.538V27.619Z" fill="#5A6A83"/>
</svg>
