<svg width="190" height="74" viewBox="0 0 190 74" fill="none" xmlns="http://www.w3.org/2000/svg">
<path d="M0.708496 18.9377H14.3886C23.1205 18.9377 28.6508 25.9663 28.6508 35.6306C28.6508 40.902 26.9043 45.5877 23.4115 48.5161C21.083 50.5661 17.8812 51.7376 13.8064 51.7376H0.708496V18.9377ZM13.3698 46.0268C19.6276 46.0268 21.9563 42.2197 21.9563 35.777C21.9563 29.3343 19.1911 24.7948 13.5153 24.7948H7.25744V46.1732H13.3698V46.0268ZM29.6692 40.0235C29.6692 32.9948 34.6174 27.577 41.894 27.577C49.1707 27.577 54.1187 32.9948 54.1187 40.0235C54.1187 47.0518 49.1707 52.4698 41.894 52.4698C34.6174 52.4698 29.6692 46.9054 29.6692 40.0235ZM47.7153 40.0235C47.7153 35.484 45.5325 32.2626 41.7484 32.2626C37.9646 32.2626 35.7818 35.3376 35.7818 40.0235C35.7818 44.7089 37.8191 47.6375 41.7484 47.6375C45.6778 47.6375 47.7153 44.5625 47.7153 40.0235ZM55.2829 40.0235C55.2829 32.9948 59.7946 27.577 66.9256 27.577C73.0378 27.577 76.6761 31.0913 77.5494 36.2162H71.437C71.0005 34.1663 69.3995 32.5556 67.2164 32.5556C63.4328 32.5556 61.5408 35.484 61.5408 40.0235C61.5408 44.4162 63.2871 47.4911 67.0711 47.4911C69.545 47.4911 71.2915 46.1732 71.7281 43.5376H77.8405C77.4037 48.5161 73.6201 52.4698 67.3622 52.4698C59.9401 52.3234 55.2829 46.9054 55.2829 40.0235ZM94.1401 51.7376V48.9554H93.9943C92.3936 51.1519 90.6473 52.3234 87.2999 52.3234C82.0608 52.3234 79.1502 48.9554 79.1502 43.8304V28.1627H85.2626V42.8055C85.2626 45.5877 86.4267 47.0518 89.1919 47.0518C92.1025 47.0518 93.8488 44.8555 93.8488 41.7806V28.1627H100.107V51.5913H94.1401V51.7376ZM130.232 19.0842H136.49V24.9414H130.232V19.0842ZM130.232 28.1627H136.49V51.5913H130.232V28.1627ZM138.964 52.3234H145.076C145.512 53.7875 146.968 54.959 149.733 54.959C153.226 54.959 154.972 53.2019 154.972 50.127V47.4911H154.827C153.518 49.1018 151.626 50.2731 148.715 50.2731C143.476 50.2731 138.382 46.1732 138.382 38.9984C138.382 31.9699 142.602 27.577 148.423 27.577C151.334 27.577 153.518 28.7483 154.827 30.652H154.972V28.1627H160.939V49.834C160.939 53.2019 159.92 55.3982 158.174 57.0088C156.282 58.9125 153.226 59.6447 149.733 59.6447C143.621 59.6447 139.691 57.0088 138.964 52.3234ZM155.408 38.852C155.408 35.484 153.516 32.5556 149.879 32.5556C146.677 32.5556 144.639 35.0448 144.639 38.9984C144.639 42.9519 146.677 45.2947 149.879 45.2947C153.808 45.2947 155.408 42.3661 155.408 38.852ZM169.816 31.3841C171.562 28.8949 173.746 27.577 176.802 27.577C181.605 27.577 184.806 31.2377 184.806 36.3625V51.7376H178.548V37.3877C178.548 34.8985 177.093 33.1412 174.474 33.1412C171.708 33.1412 169.67 35.3376 169.67 38.559V51.884H163.704V28.4555H169.816V31.3841ZM116.115 31.9699C111.313 30.9449 109.13 30.0662 109.13 27.4306C109.13 25.0878 111.458 23.6235 114.951 23.6235C118.153 23.6235 120.627 25.0878 121.209 28.1627H127.612C126.885 21.8664 122.228 18.3521 114.951 18.3521C107.675 18.3521 102.435 21.7198 102.435 28.1627C102.435 35.0448 107.82 36.5091 113.641 37.8268C118.589 38.9984 121.645 39.5839 121.645 42.8055C121.645 45.8805 118.735 47.0518 115.387 47.0518C110.731 47.0518 108.548 45.4411 108.111 41.4876H101.708C101.999 48.3699 106.947 52.3234 115.824 52.3234C123.101 52.3234 128.486 48.6624 128.486 41.9269C128.34 35.0448 122.81 33.4342 116.115 31.9699ZM187.425 32.5556C186.116 32.5556 184.951 31.3841 184.951 30.0662C184.951 28.7483 186.116 27.577 187.425 27.577C188.736 27.577 189.9 28.7483 189.9 30.0662C189.9 31.3841 188.736 32.5556 187.425 32.5556ZM187.425 28.0161C186.262 28.0161 185.389 28.8949 185.389 30.0662C185.389 31.2377 186.262 32.1163 187.425 32.1163C188.59 32.1163 189.463 31.2377 189.463 30.0662C189.463 28.8949 188.59 28.0161 187.425 28.0161Z" fill="#5A6A83"/>
<path d="M186.555 28.749H187.428C187.72 28.749 188.009 28.749 188.155 28.8954C188.301 29.0418 188.447 29.1884 188.447 29.4812C188.447 29.9205 188.155 30.0669 188.009 30.2133L188.593 31.2382H188.009L187.574 30.3597H186.992V31.2382H186.555V28.749ZM186.992 29.1884V29.9205H187.428C187.574 29.9205 187.865 29.9205 187.865 29.4812C187.865 29.4812 187.865 29.1884 187.72 29.1884H186.992Z" fill="#5A6A83"/>
</svg>
