<svg width="190" height="66" viewBox="0 0 190 66" fill="none" xmlns="http://www.w3.org/2000/svg">
<g clip-path="url(#clip0_346_993)">
<mask id="mask0_346_993" style="mask-type:luminance" maskUnits="userSpaceOnUse" x="0" y="0" width="190" height="66">
<path d="M190 0H0V65.2525H190V0Z" fill="white"/>
</mask>
<g mask="url(#mask0_346_993)">
<path d="M188.044 24.7215C188.044 23.9868 187.532 23.4968 186.69 23.4968L185.035 23.5273L185.065 27.2629H185.968V25.977H186.509L187.292 27.2629H188.345L187.412 25.8238C187.605 25.7148 187.765 25.555 187.877 25.3609C187.988 25.1671 188.046 24.9462 188.044 24.7215ZM186.509 25.2114H185.938V24.2622H186.6C186.719 24.249 186.839 24.2829 186.934 24.357C187.029 24.4311 187.093 24.5397 187.111 24.6602V24.691C187.109 24.7666 187.091 24.841 187.059 24.9092C187.026 24.9775 186.981 25.0379 186.924 25.0871C186.867 25.1362 186.801 25.1725 186.729 25.194C186.658 25.2155 186.583 25.2214 186.509 25.2114ZM53.0434 41.9907C51.509 41.9907 50.4559 40.7659 50.4559 38.9594V30.723H56.7743V24.9053H50.4709L50.4108 18.2303H43.4305L43.4908 40.4598C43.4908 44.9607 46.4393 48.0226 50.7718 48.0226C53.0586 48.0226 55.2247 47.6857 56.9397 46.8897V41.2252C55.7218 41.8004 54.3841 42.0631 53.0434 41.9907ZM69.7116 24.5378C63.2128 24.5378 58.2183 29.6818 58.2183 36.5099C58.2183 43.2766 63.2128 47.9921 70.1027 47.9921C73.9841 47.9921 77.6246 46.5836 79.8509 43.6746L74.4955 41.1947C73.4124 42.2049 71.7576 42.603 70.2833 42.603C67.8763 42.603 65.4694 41.3476 65.1383 38.7757H81.1146C81.3547 37.8566 81.476 36.9097 81.4756 35.9587C81.4756 28.9469 76.4512 24.5378 69.7267 24.5378H69.7116ZM65.1383 34.2746C65.3491 31.2127 67.5153 29.8043 69.8922 29.8043C72.5698 29.8043 74.5857 31.3352 74.5857 33.9685V34.2746H65.1383ZM36.7965 41.9907C35.2621 41.9907 34.209 40.7659 34.209 38.9594V30.723H40.5272V24.9053H34.224L34.1637 18.2303H27.1836L27.2439 40.4598C27.2439 44.9607 30.1923 48.0226 34.5249 48.0226C36.8114 48.0226 38.9778 47.6857 40.6926 46.8897V41.2252C39.4757 41.803 38.1372 42.0662 36.7965 41.9907ZM12.2755 24.5378C6.28819 24.5378 0 28.5489 0 36.6324C0 43.3685 4.45287 48.0838 10.0792 48.0838C13.2985 48.0838 15.7355 46.7672 17.3301 44.4402L17.5407 47.6857H24.2952V36.908C24.2952 28.7021 18.3531 24.5378 12.2755 24.5378ZM12.2755 41.8681C9.23672 41.8681 7.04036 39.5718 7.04036 36.3262C7.04036 33.0805 9.20663 30.7842 12.2755 30.7842C15.1037 30.7842 17.4505 33.2949 17.4505 36.3262C17.4505 39.3574 15.1037 41.8681 12.2755 41.8681ZM186.359 21.8127C184.163 21.8434 182.749 23.2825 182.779 25.4258C182.809 27.5692 184.253 28.9777 186.449 28.947C188.585 28.9164 190.03 27.4772 190 25.3034C189.969 23.1293 188.525 21.7822 186.359 21.8127ZM186.449 28.3345C184.734 28.3652 183.561 27.2016 183.561 25.4258C183.561 23.65 184.674 22.4557 186.389 22.4252C188.104 22.3944 189.247 23.5581 189.277 25.3646C189.277 27.1099 188.134 28.304 186.464 28.3345H186.449ZM152.24 24.9358L147.366 39.3269L142.432 24.9358H134.85L143.936 47.6552H150.736L159.822 24.9358H152.24ZM170.323 24.5378C163.824 24.5378 158.829 29.6818 158.829 36.5099C158.829 43.2766 163.824 47.9921 170.714 47.9921C174.595 47.9921 178.236 46.5836 180.462 43.6746L175.106 41.1947C174.023 42.2049 172.369 42.603 170.894 42.603C168.487 42.603 166.08 41.3476 165.749 38.7757H181.726C181.966 37.8566 182.087 36.9097 182.087 35.9587C182.087 28.9469 177.062 24.5378 170.323 24.5378ZM175.197 34.2746H165.749C165.96 31.2127 168.126 29.8043 170.503 29.8043C173.181 29.8043 175.197 31.3352 175.197 33.9685V34.2746ZM129.464 14.9541C126.997 14.9541 125.132 16.6382 125.132 18.9958C125.132 21.3535 126.997 23.0988 129.464 23.0988C131.932 23.0988 133.797 21.3842 133.797 18.9958C133.797 16.6075 131.962 14.9541 129.464 14.9541ZM97.7828 24.5073C96.3722 24.4841 94.9797 24.8328 93.7406 25.5197C92.5016 26.2063 91.4583 27.2078 90.7123 28.4265L90.4717 24.9358H83.7322V47.6552H90.7123V35.7443C90.8628 32.8968 93.1194 30.723 95.5865 30.723C98.3546 30.723 99.6181 32.8356 99.6181 35.4995V47.6245H106.568V34.3971C106.568 28.6408 103.123 24.5073 97.7828 24.5073ZM119.085 41.9907C117.55 41.9907 116.497 40.7659 116.497 38.9594V30.723H122.815V24.9053H116.497L116.437 18.2303H109.457L109.517 40.4598C109.517 44.9607 112.465 48.0226 116.798 48.0226C119.085 48.0226 121.251 47.6857 122.966 46.8897V41.2252C121.753 41.8005 120.42 42.0635 119.085 41.9907ZM125.944 24.9358V47.6552H132.985V24.9358C131.941 25.6398 130.717 26.0152 129.464 26.0152C128.212 26.0152 126.988 25.6398 125.944 24.9358Z" fill="#5A6A83"/>
</g>
</g>
<defs>
<clipPath id="clip0_346_993">
<rect width="190" height="65.2525" fill="white"/>
</clipPath>
</defs>
</svg>
