<?xml version="1.0" encoding="utf-8"?>
<svg width="188" height="37" viewBox="0 0 188 37" fill="none" xmlns="http://www.w3.org/2000/svg">
  <g clip-path="url(#clip0_152_60)">
    <path fill-rule="evenodd" clip-rule="evenodd" d="M7.8123 3.28639C6.5055 4.20015 5.3238 5.28051 4.29797 6.49666C8.48996 6.10748 13.8157 6.74296 19.9989 9.83459C26.6017 13.1359 31.9186 13.2475 35.6189 12.5338C35.2831 11.5172 34.8604 10.5402 34.3598 9.61145C30.1239 10.0582 24.6936 9.46683 18.365 6.30264C14.3463 4.29328 10.8038 3.46555 7.8123 3.28639ZM31.8854 6.08951C28.5403 2.35207 23.6792 0 18.2686 0C16.6797 0 15.1379 0.202879 13.6683 0.584119C15.6588 1.12725 17.7734 1.92184 19.9989 3.03465C24.6324 5.35134 28.6327 6.09728 31.8854 6.08951ZM36.41 16.102C31.9397 16.9847 25.7667 16.8034 18.365 13.1025C11.4452 9.64267 5.93768 9.68625 2.2232 10.5117C2.03146 10.5543 1.84425 10.599 1.66155 10.6456C1.17523 11.7033 0.787042 12.8155 0.508507 13.9704C0.805995 13.8909 1.11341 13.8154 1.43057 13.7449C5.93689 12.7435 12.304 12.787 19.9989 16.6345C26.9188 20.0944 32.4263 20.0508 36.1408 19.2254C36.2681 19.1971 36.3935 19.1679 36.5168 19.1377C36.5303 18.8498 36.5371 18.5599 36.5371 18.2686C36.5371 17.5355 36.494 16.8125 36.41 16.102ZM35.9204 22.9931C31.4935 23.7671 25.5002 23.47 18.365 19.9025C11.4452 16.4426 5.93768 16.4862 2.2232 17.3116C1.39869 17.4948 0.656974 17.7179 0.00267634 17.9535C0.000892422 18.0583 0 18.1633 0 18.2686C0 28.358 8.17913 36.5371 18.2686 36.5371C26.7242 36.5371 33.8382 30.7925 35.9204 22.9931Z" fill="#3FD0D4"/>
    <text style="fill: rgb(255, 255, 255); font-family: Arial, sans-serif; font-size: 28px; font-weight: 700; white-space: pre; transform-box: fill-box; transform-origin: 34.994px 15.6443px;" transform="matrix(0.88165, 0.003264, -0.003285, 0.887462, -9.87254, -0.590667)" x="44.469" y="27.986">Subh</text>
    <text style="fill: rgb(255, 255, 255); font-family: Arial, sans-serif; font-size: 28px; font-weight: 700; white-space: pre;" transform="matrix(0.91661, 0, 0, 0.91913, 7.78268, 1.18439)" x="99.4" y="27.479">Travel</text>
  </g>
  <defs>
    <clipPath id="clip0_152_60">
      <rect width="188" height="36.5371" fill="white"/>
    </clipPath>
  </defs>
</svg>