<?xml version="1.0" encoding="utf-8"?>
<svg width="283" height="62" viewBox="0 0 283 62" fill="none" xmlns="http://www.w3.org/2000/svg">
  <path fill-rule="evenodd" clip-rule="evenodd" d="M11.76 11.9471C9.79286 13.3226 8.01402 14.9489 6.46982 16.7796C12.7801 16.1937 20.7971 17.1503 30.1048 21.8042C40.0441 26.7737 48.0477 26.9417 53.6178 25.8673C53.1124 24.3371 52.4761 22.8664 51.7224 21.4683C45.3461 22.1408 37.1717 21.2506 27.6452 16.4875C21.5957 13.4627 16.2632 12.2168 11.76 11.9471ZM47.9977 16.1666C42.9623 10.5406 35.6447 7 27.5 7C25.1082 7 22.7874 7.3054 20.5751 7.87929C23.5715 8.69687 26.7546 9.89298 30.1048 11.5681C37.0796 15.0555 43.1013 16.1783 47.9977 16.1666ZM54.8087 31.2386C48.0795 32.5674 38.7871 32.2945 27.6452 26.7235C17.2287 21.5153 8.9381 21.5809 3.34662 22.8235C3.058 22.8876 2.77618 22.9549 2.50117 23.0251C1.7691 24.6172 1.18475 26.2914 0.765466 28.0299C1.21328 27.9103 1.67603 27.7966 2.15347 27.6904C8.93692 26.183 18.5214 26.2485 30.1048 32.0403C40.5214 37.2485 48.8119 37.1829 54.4035 35.9403C54.5951 35.8978 54.7839 35.8538 54.9695 35.8084C54.9898 35.3749 55 34.9386 55 34.5C55 33.3966 54.9351 32.3082 54.8087 31.2386ZM54.0716 41.6119C47.4077 42.777 38.3859 42.3298 27.6452 36.9596C17.2287 31.7514 8.9381 31.817 3.34662 33.0595C2.10547 33.3352 0.988955 33.6711 0.00402875 34.0258C0.00134338 34.1835 0 34.3416 0 34.5C0 49.6879 12.3122 62 27.5 62C40.2285 62 50.9373 53.3525 54.0716 41.6119Z" fill="#3FD0D4"/>
  <text style="fill: rgb(51, 51, 51); font-family: Arial, sans-serif; font-size: 28px; font-weight: 700; white-space: pre;" x="74.732" y="41.448" transform="matrix(1.27224, 0, 0, 1.39809, -35.8416, -10.977)">Subh</text>
  <text style="fill: rgb(63, 208, 212); font-family: Arial, sans-serif; font-size: 28px; font-weight: 700; white-space: pre;" x="152.722" y="44.833" transform="matrix(1.24477, 0, 0, 1.38973, -43.4806, -15.191)">Travel</text>
</svg>